<?xml version="1.0" encoding="UTF-8"?> <svg xmlns="http://www.w3.org/2000/svg" width="76" height="33" viewBox="0 0 76 33" fill="none"><path fill-rule="evenodd" clip-rule="evenodd" d="M15.5551 3.27512L13.9677 5.6286L15.0513 5.64644C16.2694 5.66649 16.1573 5.70665 16.4962 5.12937L16.6684 4.83593L18.2887 4.85282L19.9091 4.8697L20.1317 5.26452L20.3542 5.65934L21.5717 5.65978C22.2414 5.66004 22.7798 5.63739 22.7682 5.60951C22.7567 5.58162 22.0405 4.51441 21.1767 3.23794L19.6062 0.917086L18.3744 0.919363L17.1426 0.92164L15.5551 3.27512ZM24.8309 3.2096C24.4536 4.47052 24.1319 5.53773 24.1162 5.58117C24.0941 5.64252 24.3357 5.66023 25.194 5.66023H26.3004L26.3605 5.42307C26.3935 5.29266 26.5401 4.67365 26.6862 4.04756C26.8322 3.42146 26.9692 2.87607 26.9906 2.83553C27.0119 2.79499 27.3978 3.41299 27.8481 4.20882L28.6668 5.65586L29.7184 5.65801L30.77 5.66023L31.5726 4.23728C32.4927 2.60596 32.4201 2.67685 32.5597 3.27285C32.6187 3.52499 32.7705 4.16531 32.8971 4.69579L33.1271 5.66023H34.2188C34.8298 5.66023 35.3105 5.63499 35.3105 5.60287C35.3105 5.5543 35.0156 4.56089 34.0747 1.43883L33.9175 0.917086H32.7303H31.5431L30.6335 2.49662L29.7239 4.07614L28.8246 2.49662L27.9253 0.917086H26.7212H25.5171L24.8309 3.2096ZM36.4758 0.996139C36.4344 1.11649 36.2551 1.9287 36.2551 1.99612C36.2551 2.03128 36.82 2.05544 37.6405 2.05544H39.0259V3.85783V5.66023H40.1595H41.293V3.85783V2.05544H42.6003H43.9075L44.0172 1.56532C44.0775 1.29572 44.1269 1.03965 44.1268 0.996139C44.1268 0.933782 43.3225 0.917086 40.315 0.917086C37.3219 0.917086 36.4972 0.934099 36.4758 0.996139ZM46.016 3.28031V5.66023H47.1181H48.2201V4.96457V4.2689H49.1225H50.025L50.576 4.96457L51.127 5.66023H52.3814C53.0714 5.66023 53.6359 5.64397 53.6359 5.62411C53.6359 5.60419 53.2814 5.20033 52.8482 4.72652L52.0606 3.86511L52.3551 3.75285C53.37 3.36594 53.6031 2.02635 52.7538 1.46185C52.1239 1.04319 51.5871 0.975395 48.5822 0.934984L46.016 0.900391V3.28031ZM56.6728 3.19607C55.8319 4.44592 55.1276 5.51167 55.1074 5.56435C55.0755 5.64777 55.2126 5.66004 56.1638 5.65852L57.2568 5.65687L57.478 5.26326L57.6992 4.8697H59.3305H60.9618L61.1926 5.24915L61.4234 5.6286L62.6305 5.64581C63.2944 5.65523 63.8376 5.64745 63.8376 5.62848C63.8376 5.60951 63.1252 4.54167 62.2546 3.25552L60.6717 0.917086L59.4366 0.920375L58.2015 0.923664L56.6728 3.19607ZM65.6009 3.28866V5.66023H66.7014H67.802L67.8192 4.59232L67.8364 3.52442L69.0644 4.59024L70.2924 5.65605L71.7303 5.65814C72.5811 5.6594 73.1597 5.63645 73.1472 5.60198C73.1357 5.56992 72.4603 5.02661 71.6464 4.39457C69.8786 3.02197 69.8922 3.35221 71.5519 2.08984C72.3139 1.51023 72.9468 1.00929 72.9583 0.976597C72.971 0.940612 72.4532 0.917086 71.6496 0.917086H70.3199L69.0624 1.93054L67.805 2.94405V1.93054V0.917086H66.7029H65.6009V3.28866ZM74.2858 0.977546C73.4129 1.24316 73.1759 2.43628 73.8737 3.05156C74.4507 3.56034 75.4316 3.35702 75.7451 2.66357C76.1784 1.7054 75.2852 0.673352 74.2858 0.977546ZM75.0903 1.27478C75.6823 1.5569 75.8002 2.36627 75.3155 2.82035C74.7871 3.31528 74.0647 3.174 73.7764 2.51926C73.4102 1.68807 74.2628 0.880533 75.0903 1.27478ZM74.1653 2.14752C74.1653 2.77216 74.1732 2.81434 74.2913 2.81434C74.3962 2.81434 74.4172 2.77216 74.4172 2.56137C74.4172 2.32649 74.4298 2.30841 74.5935 2.30841C74.8173 2.30841 74.921 2.41257 74.921 2.63726C74.921 2.77937 74.9493 2.81434 75.0643 2.81434C75.211 2.81434 75.2468 2.36178 75.107 2.27495C75.078 2.25705 75.1023 2.15795 75.1609 2.05474C75.3591 1.70552 75.1806 1.52225 74.6197 1.49929L74.1653 1.4807V2.14752ZM74.8484 1.73196C75.0178 1.83972 74.9028 2.02262 74.6528 2.04342C74.4277 2.06221 74.4172 2.05443 74.4172 1.86951C74.4172 1.66688 74.6363 1.59694 74.8484 1.73196ZM50.4165 1.99644C51.1637 2.15739 51.3005 2.80618 50.6583 3.14282C50.4219 3.26671 50.2732 3.28492 49.3064 3.30832L48.2201 3.33463V2.63176V1.92896H49.1616C49.6795 1.92896 50.2442 1.95931 50.4165 1.99644ZM18.8089 3.87617C18.5365 3.88623 18.0718 3.88623 17.7761 3.87617L17.2384 3.85783L17.7538 2.99262L18.2691 2.12735L18.7866 2.99262L19.304 3.85783L18.8089 3.87617ZM59.8641 3.00407L60.3741 3.85783L59.8734 3.87617C59.598 3.88623 59.1331 3.88623 58.8403 3.87617L58.308 3.85783L58.8215 2.99471C59.1039 2.52001 59.3393 2.13582 59.3446 2.14094C59.3498 2.14607 59.5836 2.5345 59.8641 3.00407ZM71.8038 8.16467C51.6124 13.7992 43.4721 17.0838 36.2052 22.5284C34.139 24.0765 30.3829 27.5046 30.5705 27.671C30.8998 27.9632 38.9899 30.9759 41.8283 31.8635C43.754 32.4656 43.9649 32.5271 44.0114 32.4991C44.0344 32.4852 44.2558 32.0874 44.5032 31.6151C49.4011 22.265 58.7064 14.701 73.1223 8.35148C73.9306 7.99543 74.4585 7.51871 73.9961 7.56229C73.9679 7.56494 72.9814 7.836 71.8038 8.16467ZM27.0609 8.54424C16.9803 8.88929 10.5052 9.5914 5.17755 10.9171C3.29514 11.3854 0.301175 12.3969 0.432916 12.5198C0.643626 12.7165 6.46133 16.0187 8.9413 17.3493L10.1231 17.9833L10.9565 17.6027C19.1455 13.8621 31.5431 11.3592 45.8271 10.5631C47.1691 10.4883 47.2125 10.4791 47.2125 10.2707C47.2125 10.1697 47.1913 10.0866 47.1653 10.086C47.1393 10.0854 46.8226 10.0426 46.4614 9.99109C44.5433 9.71732 42.6186 9.34077 41.0727 8.93685C39.7944 8.60293 31.8504 8.38032 27.0609 8.54424ZM61.3187 10.0913C58.9252 10.3395 55.764 10.5164 52.8487 10.5654C50.3199 10.6079 48.6138 10.7703 44.5361 11.3565C31.9087 13.172 20.9719 16.4273 15.0488 20.1333C14.6705 20.37 14.5901 20.3114 16.749 21.3724C21.5786 23.7461 25.5156 25.5597 25.635 25.4659C25.6746 25.4348 26.0331 25.1422 26.4317 24.8156C34.3217 18.3498 44.9828 13.9713 60.6889 10.7461C61.6068 10.5576 62.4215 10.3886 62.4994 10.3705C62.682 10.3282 62.7112 9.95549 62.5309 9.96889C62.4703 9.97338 61.9248 10.0285 61.3187 10.0913Z" fill="white"></path></svg> 