<?xml version="1.0" encoding="UTF-8"?> <svg xmlns="http://www.w3.org/2000/svg" width="48" height="40" viewBox="0 0 48 40" fill="none"><path fill-rule="evenodd" clip-rule="evenodd" d="M5.30518 5.71933V10.967H8.83229H12.3594V8.90234V6.83769H16.2306H20.1018V19.4837V32.1297H18.1232H16.1446V35.7428V39.3559H23.715H31.2854V35.7428V32.1297H29.2207H27.1561V19.4837V6.83769H31.0273H34.8985V8.90234V10.967H38.4256H41.9527V5.71933V0.47168H23.629H5.30518V5.71933ZM39.7086 1.97715C39.7047 2.04804 39.3248 2.39662 38.8644 2.7514L38.0273 3.3966H23.093H8.15853L7.5061 2.75948C7.14719 2.40901 6.85367 2.0606 6.85367 1.98524C6.85367 1.90988 14.2477 1.84811 23.2848 1.84811C32.322 1.84811 39.7128 1.90627 39.7086 1.97715ZM40.7483 6.17614V9.64389L40.3612 9.32112C38.9435 8.13893 39.0278 8.3318 39.0278 6.27025V4.39073L39.732 3.54956C40.7447 2.34002 40.7483 2.34965 40.7483 6.17614ZM25.7796 19.5552V33.7497L25.1425 34.4021C24.792 34.7611 24.4436 35.0546 24.3683 35.0546C24.2929 35.0546 24.2311 28.0315 24.2311 19.4479V3.84119L25.0054 4.60098L25.7796 5.36077V19.5552ZM5.30518 14.7522V16.3007H5.83975C6.27797 16.3007 6.35351 16.3549 6.25922 16.6018C6.19591 16.7673 5.20126 19.09 4.04884 21.7634L1.95339 26.6239H1.04856H0.143555V28.2584V29.893H3.32656H6.50956V28.2584V26.6239H6.00286H5.49633L5.85386 25.7636L6.21139 24.9034H8.91935H11.6273L11.9824 25.7206L12.3377 26.5379L11.8324 26.5917L11.3271 26.6458V28.2693V29.893H14.5101H17.6931V28.2584V26.6239L16.7898 26.6196L15.8865 26.6153L13.7358 21.6116C12.553 18.8596 11.5594 16.5388 11.5279 16.4543C11.4962 16.3698 11.6705 16.3007 11.915 16.3007H12.3594V14.7522V13.2037H8.83229H5.30518V14.7522ZM29.7369 14.8337V16.4727H30.3391H30.9413V21.5483V26.6239H30.3391H29.7369V28.2584V29.893H32.6618H35.5867V28.2584V26.6239H34.8985H34.2103V23.0968C34.2103 18.7979 33.9987 18.7366 36.4405 23.742L38.4757 27.9143L40.5154 23.743C42.9699 18.7232 42.813 18.7672 42.813 23.0968V26.6239H42.1248H41.4366V28.2584V29.893H44.3615H47.2864V28.2584V26.6239H46.6842H46.082V21.5483V16.4727H46.6842H47.2864V14.8382V13.2037H44.6626L42.0388 13.2039L40.3217 16.818C39.3771 18.8058 38.5393 20.4105 38.4599 20.384C38.3805 20.3575 37.5512 18.7505 36.6173 16.8129L34.9192 13.2897L32.328 13.2422L29.7369 13.1947V14.8337ZM9.5809 20.1081C10.2846 21.7013 10.3145 21.6343 8.89991 21.6343C7.99095 21.6343 7.69897 21.5791 7.76246 21.4193C8.93587 18.4617 8.87359 18.5066 9.5809 20.1081ZM29.874 36.6932L29.8229 37.83L29.0917 37.2032C28.4269 36.6332 28.3604 36.504 28.3604 35.7789C28.3604 35.0726 28.4439 34.8963 29.0917 34.2353L29.8229 33.4889L29.874 34.5226C29.9021 35.0912 29.9021 36.068 29.874 36.6932Z" fill="white"></path></svg> 