<?xml version="1.0" encoding="UTF-8"?> <svg xmlns="http://www.w3.org/2000/svg" width="76" height="11" viewBox="0 0 76 11" fill="none"><path fill-rule="evenodd" clip-rule="evenodd" d="M0.286133 5.46213V10.7095L3.30605 10.6882C6.62035 10.6649 6.59142 10.6677 7.39828 10.2846C9.36644 9.35007 9.49307 6.26981 7.6021 5.32754L7.30547 5.1797L7.59426 4.99255C9.20215 3.9507 8.92273 1.43801 7.10572 0.598564C6.34034 0.245013 6.01678 0.214844 2.99021 0.214844H0.286133V5.46213ZM9.832 5.45918V10.7035H11.0694H12.3069V5.45918V0.214844H11.0694H9.832V5.45918ZM30.279 5.45918V10.7035H31.487H32.695V9.77138V8.83918L33.2362 8.26249C33.7382 7.72756 33.7833 7.69374 33.8575 7.79515C33.9016 7.85537 34.2981 8.53437 34.7387 9.30405L35.5397 10.7035H36.9163C37.6734 10.7035 38.2928 10.6889 38.2928 10.6711C38.2928 10.6533 37.7005 9.61252 36.9765 8.3583C36.2526 7.10408 35.628 6.01732 35.5886 5.94337C35.5215 5.81709 35.5971 5.7221 36.8166 4.40059C37.5313 3.62608 38.1161 2.97731 38.1161 2.95887C38.1161 2.94048 37.4996 2.92611 36.7461 2.92705L35.376 2.92864L34.0502 4.42045L32.7244 5.9122L32.7091 3.06352L32.6938 0.214844H31.4864H30.279V5.45918ZM38.8821 5.45918V10.7035H40.149H41.4159V8.93576V7.16801L42.1377 7.16931L42.8595 7.17066L43.8553 8.93706L44.851 10.7035H46.3197H47.7885L47.5954 10.3647C47.4893 10.1784 46.9745 9.28501 46.4516 8.37957L45.5008 6.7332L45.9185 6.46038C48.2156 4.95973 47.8859 1.46388 45.3584 0.522904C44.5938 0.238237 44.3013 0.214844 41.5067 0.214844H38.8821V5.45918ZM65.4573 5.45918V10.7035H66.6653H67.8733V9.75706V8.81055L68.4183 8.23921L68.9634 7.66787L69.8243 9.17099L70.6853 10.6741L72.0782 10.6898C72.8444 10.6986 73.4711 10.6963 73.4711 10.6848C73.4711 10.6733 72.8467 9.58164 72.0836 8.25877C71.3204 6.93596 70.7087 5.82458 70.7242 5.78898C70.7398 5.75345 71.3283 5.10121 72.032 4.3396L73.3115 2.95486L71.9932 2.93895C70.3906 2.91963 70.7748 2.71239 69.2198 4.43506L67.9027 5.89411L67.8874 3.05445L67.8721 0.214844H66.6647H65.4573V5.45918ZM5.53047 2.454C6.2226 2.83849 6.2209 3.83208 5.52746 4.22175C5.27503 4.36359 5.22005 4.36977 4.04261 4.38804L2.81991 4.40707V3.33788V2.26868L4.04261 2.28771C5.21905 2.30598 5.27532 2.31228 5.53047 2.454ZM43.9533 2.43108C45.2145 2.80561 45.153 4.57583 43.8653 4.96003C43.6556 5.0226 43.2744 5.0467 42.4953 5.0467H41.4159V3.69143V2.33615H42.5247C43.3727 2.33615 43.7088 2.35848 43.9533 2.43108ZM25.4316 2.70296C20.5815 3.10978 20.5791 10.4196 25.4289 10.8784C27.2653 11.0522 28.8816 10.3545 29.5934 9.0809C29.7838 8.74031 29.8647 8.8198 28.7214 8.2246C27.8477 7.76975 27.7781 7.74347 27.7197 7.84647C26.4703 10.047 23.3713 8.11317 24.4525 5.80766C25.0718 4.48697 26.966 4.40171 27.6111 5.66542C27.6607 5.76265 27.7089 5.85097 27.7183 5.86176C27.7316 5.87708 29.6566 4.89922 29.7398 4.83487C29.8103 4.78036 29.3604 4.12523 29.006 3.76603C28.1692 2.91798 27.003 2.57114 25.4316 2.70296ZM51.2875 2.69235C46.4299 3.45561 46.6134 10.3276 51.5062 10.8819C53.8078 11.1426 55.8274 9.76095 56.242 7.64212C56.8244 4.66528 54.3655 2.20875 51.2875 2.69235ZM60.6844 2.69459C55.7829 3.14177 55.7203 10.4129 60.6139 10.8792C62.4365 11.0529 63.9894 10.3998 64.747 9.141C64.9936 8.73118 65.0616 8.80259 63.8421 8.18906C63.0333 7.78213 62.9587 7.75555 62.9032 7.8546C62.1658 9.17229 60.1566 9.08314 59.615 7.70859C58.727 5.45535 61.4669 3.58247 62.7427 5.57061L62.9374 5.87407L63.9175 5.36408C64.4565 5.08353 64.9097 4.8433 64.9245 4.83015C65.0561 4.71337 64.1305 3.59968 63.6404 3.28526C62.9101 2.81657 61.7933 2.59342 60.6844 2.69459ZM15.8207 2.77773C14.9191 2.96459 13.4264 3.68212 13.4264 3.92866C13.4264 3.96278 14.2949 4.96474 14.6965 5.39389C14.7614 5.46331 14.8076 5.44869 14.9984 5.29861C16.3271 4.25287 18.0468 4.58703 18.1841 5.91762L18.2177 6.24318L17.9581 6.19993C17.2209 6.07707 16.9367 6.05079 16.3432 6.05061C13.7552 6.05002 12.3181 8.05495 13.5764 9.91097C14.3968 11.1212 17.1265 11.2086 18.2248 10.0599L18.3975 9.87927L18.5198 10.0971C18.8931 10.7627 20.1788 11.0367 21.2193 10.6726L21.4992 10.5746V9.72996V8.88538L21.1826 8.91803C20.6097 8.97713 20.6155 8.9961 20.6143 7.06489C20.612 3.45914 19.0922 2.09986 15.8207 2.77773ZM52.8682 4.95154C54.2903 5.64727 54.2433 7.96126 52.7935 8.632C51.2698 9.33687 49.7554 7.86439 50.2239 6.13352C50.5355 4.9823 51.7873 4.42269 52.8682 4.95154ZM5.46129 6.49279C6.17741 6.70545 6.47298 7.45156 6.09326 8.08818C5.82804 8.53289 5.40402 8.64114 3.92712 8.64114H2.81991V7.52156V6.40198H3.98769C4.86803 6.40198 5.23083 6.42432 5.46129 6.49279ZM17.7903 7.53022L18.1994 7.59775V7.93881C18.1994 9.12892 16.5238 9.74257 15.8261 8.80801C15.1922 7.95896 16.2438 7.27478 17.7903 7.53022ZM74.3271 9.42331C73.7788 9.97161 74.1401 10.7891 74.9274 10.7817C75.5568 10.7758 75.8836 10.2306 75.6266 9.61541C75.447 9.18561 74.6784 9.072 74.3271 9.42331ZM75.1875 9.44052C75.5511 9.62855 75.6239 10.1891 75.3216 10.4731C75.0924 10.6885 74.6332 10.6764 74.4383 10.4498C73.9713 9.90691 74.5589 9.11543 75.1875 9.44052ZM74.5318 9.99642C74.5318 10.3696 74.543 10.4089 74.6497 10.4089C74.7282 10.4089 74.7675 10.3696 74.7675 10.291C74.7675 10.2262 74.7931 10.1732 74.8244 10.1732C74.8556 10.1732 74.9096 10.2262 74.9443 10.291C75.0453 10.4798 75.2554 10.4507 75.1685 10.26C75.1171 10.1471 75.1174 10.0943 75.1698 10.042C75.3847 9.82701 75.1962 9.58394 74.8146 9.58394H74.5318V9.99642ZM74.9921 9.86319C74.9625 10.0167 74.7675 10.0339 74.7675 9.88287C74.7675 9.79854 74.8053 9.76072 74.8897 9.76072C74.974 9.76072 75.0057 9.79248 74.9921 9.86319Z" fill="white"></path></svg> 