<svg width="282" height="55" viewBox="0 0 282 55" fill="none" xmlns="http://www.w3.org/2000/svg">
<path d="M61.5233 15.5946H65.6832V40.1163H79.0505L77.5909 44.2033H61.535L61.5233 15.5946Z" fill="black"/>
<path d="M114.21 37.2526C116.375 39.1194 119.146 40.1325 122.004 40.1018C125.568 40.0492 127.375 38.7209 127.425 36.117C127.451 33.9762 126.26 32.6946 123.852 32.2723C122.747 32.1147 121.536 31.9376 120.221 31.741C117.862 31.3382 116.068 30.4293 114.838 29.0144C113.565 27.5477 112.887 25.6575 112.937 23.716C112.937 21.219 113.733 19.2048 115.325 17.6731C116.867 16.1551 119.053 15.3835 121.885 15.3582C125.287 15.436 128.253 16.4198 130.783 18.3095L128.447 21.871C126.452 20.476 124.085 19.7094 121.651 19.6699C120.498 19.6257 119.364 19.9792 118.44 20.6712C117.551 21.364 117.093 22.3974 117.068 23.7714C117.073 24.6078 117.403 25.4094 117.988 26.0076C118.604 26.6868 119.589 27.1578 120.942 27.4205C121.695 27.5509 122.724 27.7008 124.027 27.8701C126.598 28.2379 128.499 29.1993 129.729 30.7543C130.94 32.2674 131.586 34.1555 131.556 36.0936C131.418 41.5624 128.207 44.3356 121.923 44.4135C117.863 44.4135 114.373 43.1125 111.451 40.5105L114.21 37.2526Z" fill="black"/>
<path d="M194.057 29.8843C194.057 26.5602 194.155 24.3338 194.349 23.205C194.492 22.2475 194.804 21.3232 195.272 20.4755C196.033 19.058 197.137 17.8536 198.483 16.9724C199.921 15.9293 201.72 15.3951 203.878 15.3698C206.061 15.3951 207.879 15.9312 209.331 16.9783C210.652 17.8716 211.726 19.0847 212.452 20.5047C212.958 21.3312 213.281 22.2572 213.398 23.2196C213.561 24.3426 213.642 26.5641 213.64 29.8843C213.64 33.1539 213.559 35.3628 213.398 36.511C213.283 37.4915 212.955 38.435 212.437 39.2755C211.717 40.6935 210.642 41.9005 209.316 42.7786C207.863 43.8237 206.045 44.3725 203.863 44.4251C201.709 44.3725 199.911 43.8237 198.468 42.7786C197.116 41.905 196.01 40.6988 195.257 39.2755C195.063 38.8435 194.881 38.4319 194.711 38.0407C194.537 37.5442 194.41 37.0319 194.335 36.511C194.152 35.3608 194.059 33.1519 194.057 29.8843ZM198.212 29.8843C198.212 32.7004 198.309 34.6067 198.503 35.6031C198.631 36.4926 199.003 37.3293 199.578 38.0202C200.038 38.6245 200.632 39.1149 201.312 39.4536C202.076 39.9019 202.951 40.1265 203.837 40.1017C204.74 40.1246 205.632 39.9005 206.418 39.4536C207.076 39.1141 207.645 38.6228 208.076 38.0202C208.653 37.3263 209.036 36.4926 209.188 35.6031C209.383 34.6067 209.48 32.7004 209.48 29.8843C209.48 27.0682 209.383 25.1502 209.188 24.1304C209.031 23.2538 208.648 22.4335 208.076 21.7512C207.638 21.1477 207.072 20.6491 206.418 20.2916C205.615 19.894 204.732 19.6863 203.837 19.6844C202.959 19.6849 202.094 19.893 201.312 20.2916C200.636 20.6485 200.045 21.1463 199.578 21.7512C199.01 22.4302 198.641 23.2524 198.509 24.1275C198.315 25.1493 198.217 27.0682 198.217 29.8843H198.212Z" fill="black"/>
<path d="M222.231 15.5946H226.385V44.177H222.231V15.5946Z" fill="black"/>
<path d="M235.47 15.5946H239.379L251.8 35.9126H251.876V15.5946H256.027V44.177H252.101L239.697 23.8561H239.624V44.177H235.47V15.5946Z" fill="black"/>
<path d="M97.2112 15.5946H93.7431L83.7826 44.177H88.1848L90.2896 37.7839L91.4865 33.945L95.4596 21.4419H95.5355L99.5057 33.945H95.6348C91.8047 33.945 90.2896 37.7839 90.2896 37.7839H100.685L102.81 44.177H107.189L97.2112 15.5946Z" fill="black"/>
<path d="M186.654 20.3383C186.199 19.2575 185.475 18.3117 184.549 17.5913C183.662 16.8215 182.623 16.2475 181.499 15.9069C180.468 15.6948 179.419 15.5901 178.366 15.5945H168.441V44.1769H172.595V19.6698H178.609C179.658 19.624 180.695 19.9056 181.578 20.4755C182.137 20.8125 182.593 21.2961 182.897 21.8738C183.22 22.6398 183.374 23.4661 183.35 24.2968C183.353 25.4444 182.96 26.558 182.237 27.4496C181.459 28.4227 180.291 28.9219 178.734 28.9472H179.117C175.205 28.9472 172.572 33.0195 172.572 33.0195H178.898C181.724 32.967 183.871 32.026 185.341 30.1966C186.724 28.5874 187.485 26.5357 187.486 24.4136C187.525 23.0093 187.24 21.615 186.654 20.3383Z" fill="black"/>
<path d="M262.809 15.5946V19.4334H270.323H274.439C274.439 19.4334 270.323 22.0608 270.323 25.9784V44.1624H274.474V19.4334H280.54L282 15.5946H262.809Z" fill="black"/>
<path d="M41.4709 31.9628H51.2884L52.748 28.124H47.3912C44.2559 28.3926 42.0373 31.1834 41.4709 31.9628Z" fill="black"/>
<path d="M37.1767 15.5946V44.177H41.3279V32.1643V32.1672V28.0919V19.6699H51.9423H53.2443L54.6981 15.5946H37.1767Z" fill="black"/>
<path d="M143.826 27.8496V15.5946H139.675V44.177H143.826V31.6885L143.835 27.8496H143.826Z" fill="black"/>
<path d="M154.72 15.5946V27.8555H150.342C146.444 27.8555 143.826 31.6943 143.826 31.6943H154.72V44.1829H158.875V15.5946H154.72Z" fill="black"/>
<path d="M15.4166 19.3316C12.4331 25.5496 10.9939 32.439 10.4159 35.8546C11.1749 38.4031 11.9252 41.5996 11.9252 44.2737C11.9252 49.6831 8.8541 51.6974 8.8541 51.6974C8.8541 51.6974 5.78596 49.6831 5.78596 44.2737C5.78596 41.5851 6.47783 38.3505 7.30398 35.8078C8.66435 31.0553 14.894 17.3523 14.894 17.3523C14.894 17.3523 13.6154 12.7632 12.3543 9.1784L12.1207 8.51865C12.0117 9.78638 11.7849 11.0412 11.4435 12.267C11.2391 7.26921 8.8541 0.00610352 8.8541 0.00610352C8.8541 0.00610352 8.8541 3.00126 4.42851 16.3773C2.48137 22.2479 0 29.0089 0 34.7861C0 49.3094 8.8541 54.7129 8.8541 54.7129C8.8541 54.7129 17.7111 49.3094 17.7111 34.7861C17.7111 29.9489 16.7273 24.4695 15.4166 19.3316Z" fill="#FF932F"/>
</svg>
