<?xml version="1.0" encoding="UTF-8"?> <svg xmlns="http://www.w3.org/2000/svg" width="30" height="35" viewBox="0 0 30 35" fill="none"><path d="M10.4992 28.5812V31.5003C10.4992 31.655 10.5607 31.8033 10.6701 31.9127C10.7795 32.0221 10.9278 32.0836 11.0825 32.0836H11.6658V34.4167C11.6658 34.5714 11.7273 34.7198 11.8367 34.8292C11.946 34.9385 12.0944 35 12.2491 35H16.9154C17.0701 35 17.2185 34.9385 17.3279 34.8292C17.4372 34.7198 17.4987 34.5714 17.4987 34.4167V32.0836H18.082C18.2367 32.0836 18.385 32.0221 18.4944 31.9127C18.6038 31.8033 18.6653 31.655 18.6653 31.5003V28.5812C22.035 27.5983 24.9372 25.4329 26.8389 22.4826C28.7407 19.5322 29.5143 15.9949 29.0179 12.52C28.5215 9.0451 26.7883 5.86589 24.1366 3.56602C21.4848 1.26616 18.0924 0 14.5823 0C11.0721 0 7.67972 1.26616 5.02796 3.56602C2.37619 5.86589 0.643005 9.0451 0.146594 12.52C-0.349818 15.9949 0.423863 19.5322 2.3256 22.4826C4.22733 25.4329 7.12948 27.5983 10.4992 28.5812ZM16.3321 33.8334H12.8324V32.0836H16.3321V33.8334ZM17.4987 30.917H11.6658V28.8737C13.5904 29.2649 15.5741 29.2649 17.4987 28.8737V30.917ZM14.5823 1.16925C17.2356 1.16925 19.8294 1.95606 22.0356 3.43019C24.2418 4.90432 25.9613 6.99956 26.9767 9.45095C27.9921 11.9023 28.2578 14.5998 27.7401 17.2022C27.2225 19.8045 25.9448 22.195 24.0685 24.0712C22.1923 25.9474 19.8019 27.2251 17.1995 27.7428C14.5971 28.2604 11.8997 27.9947 9.44831 26.9793C6.99692 25.9639 4.90169 24.2444 3.42756 22.0382C1.95343 19.832 1.16661 17.2383 1.16661 14.5849C1.17066 11.0281 2.58538 7.61811 5.10043 5.10307C7.61547 2.58802 11.0254 1.17329 14.5823 1.16925Z" fill="#1E818E"></path><path d="M14.5821 26.8341C17.0047 26.8341 19.3729 26.1157 21.3873 24.7697C23.4016 23.4238 24.9716 21.5107 25.8987 19.2725C26.8258 17.0343 27.0684 14.5714 26.5958 12.1953C26.1231 9.81925 24.9565 7.63667 23.2435 5.92361C21.5304 4.21055 19.3478 3.04394 16.9717 2.57131C14.5957 2.09867 12.1328 2.34124 9.89456 3.26835C7.65633 4.19545 5.74329 5.76544 4.39735 7.77979C3.0514 9.79414 2.33301 12.1624 2.33301 14.585C2.33665 17.8325 3.62834 20.946 5.9247 23.2424C8.22105 25.5387 11.3345 26.8304 14.5821 26.8341ZM14.5821 3.50252C16.774 3.50252 18.9167 4.1525 20.7392 5.37026C22.5617 6.58801 23.9821 8.31886 24.821 10.3439C25.6598 12.369 25.8792 14.5973 25.4516 16.7471C25.024 18.8969 23.9685 20.8716 22.4186 22.4215C20.8687 23.9714 18.8939 25.0269 16.7442 25.4545C14.5944 25.8822 12.366 25.6627 10.341 24.8239C8.31593 23.9851 6.58508 22.5646 5.36732 20.7421C4.14956 18.9196 3.49959 16.7769 3.49959 14.585C3.50292 11.6468 4.67161 8.82984 6.74926 6.75219C8.8269 4.67455 11.6438 3.50586 14.5821 3.50252Z" fill="#1E818E"></path><path d="M14.5816 19.8342C15.6199 19.8342 16.6349 19.5263 17.4982 18.9494C18.3614 18.3726 19.0343 17.5527 19.4316 16.5935C19.829 15.6343 19.9329 14.5787 19.7304 13.5604C19.5278 12.5421 19.0278 11.6067 18.2937 10.8725C17.5595 10.1384 16.6241 9.63839 15.6058 9.43583C14.5875 9.23328 13.5319 9.33724 12.5727 9.73457C11.6135 10.1319 10.7936 10.8047 10.2167 11.668C9.63991 12.5313 9.33203 13.5463 9.33203 14.5846C9.33365 15.9763 9.88725 17.3107 10.8714 18.2948C11.8555 19.2789 13.1898 19.8325 14.5816 19.8342ZM14.5816 10.5015C15.3892 10.5015 16.1786 10.741 16.85 11.1897C17.5215 11.6383 18.0448 12.276 18.3538 13.0221C18.6629 13.7681 18.7437 14.5891 18.5862 15.3811C18.4287 16.1731 18.0398 16.9007 17.4688 17.4717C16.8977 18.0427 16.1702 18.4316 15.3782 18.5891C14.5862 18.7467 13.7652 18.6658 13.0191 18.3568C12.2731 18.0477 11.6354 17.5244 11.1867 16.853C10.7381 16.1815 10.4986 15.3921 10.4986 14.5846C10.4998 13.5021 10.9304 12.4642 11.6958 11.6988C12.4613 10.9333 13.4991 10.5028 14.5816 10.5015Z" fill="#1E818E"></path><path d="M5.64987 16.5996L7.29977 17.1461L7.62417 17.9274L6.92696 19.395C6.88246 19.4888 6.86377 19.5928 6.87283 19.6962C6.8819 19.7996 6.91837 19.8988 6.97851 19.9834C7.58493 20.8366 8.33028 21.582 9.1835 22.1884C9.26814 22.2484 9.36722 22.2848 9.47058 22.2939C9.57393 22.3029 9.67783 22.2843 9.77163 22.24L11.2398 21.543L12.021 21.8671L12.5673 23.5173C12.6058 23.6337 12.6801 23.735 12.7795 23.8068C12.8789 23.8786 12.9984 23.9172 13.121 23.9172H16.0443C16.1669 23.9172 16.2864 23.8786 16.3858 23.8068C16.4852 23.735 16.5594 23.6337 16.5979 23.5173L17.1356 21.8933C17.4133 21.796 17.6851 21.6829 17.9499 21.5547L19.3933 22.2402C19.487 22.2852 19.5911 22.3041 19.6946 22.295C19.7981 22.2859 19.8973 22.2492 19.9817 22.1887C20.835 21.5822 21.5803 20.8367 22.1867 19.9834C22.2469 19.8988 22.2833 19.7996 22.2924 19.6962C22.3015 19.5928 22.2828 19.4888 22.2383 19.395L21.5528 17.9519C21.681 17.687 21.7941 17.4151 21.8914 17.1373L23.5154 16.5996C23.6318 16.5611 23.7331 16.4869 23.8049 16.3874C23.8766 16.288 23.9153 16.1685 23.9152 16.0459V13.1229C23.9153 13.0003 23.8766 12.8808 23.8048 12.7814C23.7331 12.682 23.6318 12.6078 23.5154 12.5693L21.8914 12.0315C21.794 11.7539 21.681 11.4821 21.5528 11.2173L22.2383 9.77386C22.2828 9.68006 22.3015 9.57609 22.2924 9.47266C22.2833 9.36923 22.2469 9.27009 22.1867 9.18545C21.5802 8.3323 20.8349 7.58696 19.9817 6.98046C19.8972 6.92014 19.798 6.88356 19.6946 6.87449C19.5911 6.86543 19.4871 6.88422 19.3933 6.92891L17.9499 7.61444C17.6852 7.48621 17.4133 7.37315 17.1357 7.27581L16.598 5.65183C16.5594 5.53542 16.4852 5.43413 16.3858 5.36234C16.2864 5.29055 16.1669 5.25193 16.0443 5.25195H13.121C12.9984 5.25193 12.8789 5.29056 12.7795 5.36235C12.6801 5.43414 12.6058 5.53543 12.5673 5.65183L12.021 7.30172L11.2398 7.62583L9.7722 6.92891C9.67839 6.88442 9.57442 6.86575 9.47099 6.87481C9.36757 6.88387 9.26843 6.92034 9.18378 6.98046C8.33048 7.58688 7.58503 8.33223 6.97851 9.18545C6.91837 9.27009 6.8819 9.36923 6.87283 9.47266C6.86377 9.57609 6.88246 9.68006 6.92696 9.77386L7.62417 11.2418L7.30006 12.023L5.64987 12.5693C5.53348 12.6078 5.43218 12.682 5.3604 12.7814C5.28861 12.8808 5.24998 13.0003 5.25 13.1229V16.0459C5.24998 16.1685 5.28861 16.288 5.3604 16.3874C5.43218 16.4868 5.53348 16.5611 5.64987 16.5996ZM6.41658 13.5442L7.9198 13.0466C7.9992 13.0203 8.07201 12.9772 8.13329 12.9202C8.19457 12.8633 8.24289 12.7938 8.27496 12.7165L8.801 11.4494C8.8324 11.374 8.84759 11.2929 8.84558 11.2112C8.84357 11.1296 8.8244 11.0493 8.78933 10.9755L8.13113 9.58987C8.55327 9.04463 9.04287 8.55513 9.58818 8.13307L10.9735 8.79098C11.0473 8.8259 11.1276 8.845 11.2092 8.84706C11.2908 8.84912 11.3719 8.83409 11.4474 8.80294L12.7145 8.27719C12.7918 8.24506 12.8613 8.19669 12.9182 8.13536C12.9752 8.07404 13.0183 8.00119 13.0446 7.92175L13.5422 6.41853H15.623L16.1206 7.92175C16.1499 8.01025 16.2001 8.09043 16.2668 8.15558C16.3334 8.22074 16.4148 8.26898 16.5039 8.29628C16.9063 8.41938 17.2958 8.58105 17.6671 8.77903C17.7475 8.82188 17.8368 8.84531 17.9279 8.84744C18.019 8.84956 18.1094 8.83033 18.1917 8.79128L19.5773 8.13308C20.1224 8.55536 20.6118 9.04484 21.0341 9.58987L20.3759 10.9755C20.3369 11.0578 20.3177 11.1481 20.3198 11.2392C20.3219 11.3303 20.3453 11.4197 20.3882 11.5001C20.5862 11.8714 20.7478 12.2609 20.8709 12.6632C20.8982 12.7524 20.9465 12.8337 21.0116 12.9004C21.0768 12.9671 21.157 13.0172 21.2454 13.0466L22.7487 13.5442V15.6247L21.2454 16.1225C21.1569 16.1519 21.0767 16.202 21.0116 16.2687C20.9464 16.3354 20.8982 16.4167 20.8709 16.5059C20.7478 16.9083 20.5861 17.2978 20.3882 17.6691C20.3453 17.7495 20.3218 17.8388 20.3197 17.9299C20.3175 18.021 20.3368 18.1114 20.3759 18.1937L21.0341 19.5793C20.6118 20.1242 20.1223 20.6137 19.5773 21.0361L18.1917 20.3779C18.1094 20.3386 18.0191 20.3193 17.928 20.3214C17.8368 20.3235 17.7475 20.3471 17.6671 20.3901C17.2958 20.5881 16.9063 20.7498 16.5039 20.8729C16.4148 20.9002 16.3335 20.9484 16.2668 21.0136C16.2001 21.0787 16.15 21.1589 16.1206 21.2474L15.623 22.7506H13.5422L13.0447 21.2474C13.0183 21.168 12.9752 21.0952 12.9183 21.0339C12.8613 20.9726 12.7918 20.9243 12.7146 20.8922L11.4474 20.3662C11.3721 20.3348 11.291 20.3196 11.2094 20.3216C11.1278 20.3236 11.0475 20.3428 10.9738 20.3779L9.58792 21.0358C9.04282 20.6137 8.55334 20.1243 8.13113 19.5793L8.78932 18.1937C8.82439 18.1199 8.84355 18.0396 8.84556 17.958C8.84757 17.8763 8.83239 17.7952 8.80099 17.7198L8.27494 16.4526C8.2429 16.3753 8.1946 16.3059 8.13332 16.2489C8.07203 16.1919 7.9992 16.1488 7.91978 16.1225L6.41658 15.6247V13.5442Z" fill="#1E818E"></path><path d="M15.1656 11.6689H13.999V15.1687H15.1656V11.6689Z" fill="#1E818E"></path><path d="M15.1656 16.335H13.999V17.5015H15.1656V16.335Z" fill="#1E818E"></path></svg> 