<?xml version="1.0" encoding="UTF-8"?> <svg xmlns="http://www.w3.org/2000/svg" width="36" height="36" viewBox="0 0 36 36" fill="none"><path d="M25.1605 12.1568C25.1605 11.9309 24.9785 11.7476 24.7543 11.7476C21.7068 11.7476 19.2276 9.25064 19.2276 6.18141V5.4531C19.2276 5.22725 19.0455 5.04395 18.8213 5.04395C18.597 5.04395 18.415 5.22725 18.415 5.4531V6.18141C18.415 9.70181 21.2588 12.5659 24.7543 12.5659C24.9785 12.5659 25.1605 12.3826 25.1605 12.1568Z" fill="#1E818E" stroke="#1E818E" stroke-width="0.2"></path><path d="M9.91078 35.3337C14.1093 35.3337 17.6573 32.4974 18.7802 28.6295H33.9861C34.7287 28.6295 35.3327 28.0212 35.3327 27.2738C35.3327 26.5291 34.7287 25.923 33.9861 25.923H33.569V23.1118C33.569 19.1457 30.9695 15.7797 27.3955 14.6482C30.9679 13.5157 33.5663 10.1491 33.5663 6.18191V3.37235H33.9882C34.7287 3.37235 35.3311 2.7657 35.3311 2.0194C35.3311 1.27309 34.7287 0.666992 33.9882 0.666992H15.5215C14.781 0.666992 14.1786 1.27364 14.1786 2.0194C14.1786 2.76516 14.781 3.37235 15.5215 3.37235H15.9434V6.18191C15.9434 10.1502 18.5429 13.5173 22.1169 14.6493C19.6788 15.418 17.6567 17.2265 16.6384 19.6558C15.0383 17.9417 12.8055 16.8419 10.317 16.7322V15.4371H12.0482C12.5818 15.4371 13.0162 14.9996 13.0162 14.4622V13.8054C13.0162 13.268 12.5818 12.8305 12.0482 12.8305H7.77388C7.24033 12.8305 6.8059 13.268 6.8059 13.8054V14.4622C6.8059 14.9996 7.24033 15.4371 7.77388 15.4371H9.50453V16.7322C4.59587 16.9482 0.666016 21.0262 0.666016 26.0223C0.666016 31.1564 4.81308 35.3337 9.91078 35.3337ZM33.9866 26.7408C34.2807 26.7408 34.5207 26.9797 34.5207 27.2732C34.5207 27.5695 34.2813 27.8106 33.9866 27.8106H18.9855C19.0488 27.4822 19.109 26.9988 19.1285 26.7408C19.3289 26.7408 19.519 26.7408 19.701 26.7408C22.1759 26.7408 22.9819 26.7408 22.9619 26.7408C25.1443 26.7408 28.6208 26.7408 33.9866 26.7408ZM15.5215 2.55349C15.2289 2.55349 14.9912 2.31399 14.9912 2.01885C14.9912 1.72426 15.2289 1.48422 15.5215 1.48422H33.9893C34.2818 1.48422 34.5196 1.72371 34.5196 2.01885C34.5196 2.31345 34.2818 2.55349 33.9893 2.55349C33.6324 2.55349 33.4168 2.55349 33.2911 2.55349C33.1784 2.55349 33.1373 2.55349 33.1346 2.55349C32.4548 2.55349 29.1386 2.55349 15.5215 2.55349ZM16.7559 6.18136V3.3718H32.7548V6.18136C32.7548 10.6237 29.1663 14.238 24.7554 14.238C20.3445 14.238 16.7559 10.6237 16.7559 6.18136ZM24.7559 15.0585C29.1679 15.0585 32.757 18.6711 32.757 23.1118V25.9225H19.1545C19.1474 25.2864 19.0711 24.611 18.9004 23.8843C18.5998 22.6072 18.043 21.401 17.2407 20.3448C18.3902 17.1735 21.3835 15.0585 24.7559 15.0585ZM7.77388 14.6188C7.68829 14.6188 7.61842 14.5484 7.61842 14.4622V13.8054C7.61842 13.7192 7.68829 13.6488 7.77388 13.6488H12.0482C12.1338 13.6488 12.2037 13.7192 12.2037 13.8054V14.4622C12.2037 14.5484 12.1338 14.6188 12.0482 14.6188H7.77388ZM9.91078 17.5292C13.8726 17.5292 17.2824 20.3126 18.1372 24.1767C19.311 29.5405 15.2322 34.5153 9.91078 34.5153C5.26105 34.5153 1.47853 30.7053 1.47853 26.0223C1.47853 21.3393 5.26105 17.5292 9.91078 17.5292Z" fill="#1E818E" stroke="#1E818E" stroke-width="0.2"></path><path d="M24.7568 17.5468C27.8043 17.5468 30.2836 20.0438 30.2836 23.113V23.8413C30.2836 24.0672 30.4656 24.2505 30.6898 24.2505C30.9141 24.2505 31.0961 24.0672 31.0961 23.8413V23.113C31.0961 19.5926 28.2523 16.7285 24.7568 16.7285C24.5326 16.7285 24.3506 16.9118 24.3506 17.1377C24.3506 17.3635 24.5326 17.5468 24.7568 17.5468Z" fill="#1E818E" stroke="#1E818E" stroke-width="0.2"></path><path d="M5.09375 26.0186C5.09375 26.2445 5.27575 26.4278 5.50001 26.4278H8.55451C8.72947 27.0192 9.26844 27.4545 9.91195 27.4545C10.6968 27.4545 11.3349 26.8118 11.3349 26.0219C11.3349 25.3749 10.9043 24.8332 10.3182 24.6559V21.6172C10.3182 21.3913 10.1362 21.208 9.91195 21.208C9.6877 21.208 9.50569 21.3913 9.50569 21.6172V24.6559C9.05069 24.7939 8.69426 25.1518 8.55668 25.6095H5.50001C5.27575 25.6095 5.09375 25.7928 5.09375 26.0186ZM9.91195 25.4071C10.2489 25.4071 10.5224 25.6826 10.5224 26.0214C10.5224 26.3601 10.2489 26.6356 9.91195 26.6356C9.57557 26.6356 9.30202 26.3601 9.30202 26.0214C9.30202 25.6831 9.57557 25.4071 9.91195 25.4071Z" fill="#1E818E" stroke="#1E818E" stroke-width="0.2"></path><path d="M9.91016 19.7865C10.1344 19.7865 10.3164 19.6032 10.3164 19.3773V18.4619C10.3164 18.236 10.1344 18.0527 9.91016 18.0527C9.68591 18.0527 9.50391 18.236 9.50391 18.4619V19.3773C9.50391 19.6032 9.68591 19.7865 9.91016 19.7865Z" fill="#1E818E" stroke="#1E818E" stroke-width="0.2"></path><path d="M9.91016 32.2578C9.68591 32.2578 9.50391 32.4411 9.50391 32.667V33.5824C9.50391 33.8083 9.68591 33.9916 9.91016 33.9916C10.1344 33.9916 10.3164 33.8083 10.3164 33.5824V32.667C10.3164 32.4406 10.135 32.2578 9.91016 32.2578Z" fill="#1E818E" stroke="#1E818E" stroke-width="0.2"></path><path d="M7.27604 19.9187C7.35295 20.1325 7.58858 20.2406 7.79659 20.1631C8.0073 20.0856 8.11617 19.851 8.03926 19.6388L7.72833 18.7785C7.65196 18.5663 7.41795 18.4555 7.20779 18.5341C6.99707 18.6116 6.8882 18.8461 6.96511 19.0584L7.27604 19.9187Z" fill="#1E818E" stroke="#1E818E" stroke-width="0.2"></path><path d="M12.0963 33.266C12.1733 33.4787 12.4067 33.5878 12.6169 33.5104C12.8276 33.4329 12.9365 33.1983 12.8596 32.9861L12.5486 32.1258C12.4717 31.913 12.2383 31.8039 12.0281 31.8814C11.8174 31.9588 11.7085 32.1934 11.7854 32.4056L12.0963 33.266Z" fill="#1E818E" stroke="#1E818E" stroke-width="0.2"></path><path d="M5.36288 21.195C5.50751 21.3685 5.76318 21.3903 5.93543 21.2457C6.10714 21.1001 6.12989 20.8426 5.98581 20.6691L5.40134 19.9675C5.25725 19.7946 5.00104 19.7717 4.82879 19.9168C4.65708 20.0624 4.63433 20.3199 4.77841 20.4934L5.36288 21.195Z" fill="#1E818E" stroke="#1E818E" stroke-width="0.2"></path><path d="M14.4225 32.0764C14.5671 32.2499 14.8228 32.2717 14.995 32.1272C15.1667 31.9815 15.1895 31.724 15.0454 31.5505L14.4609 30.849C14.3168 30.6766 14.0612 30.6536 13.8884 30.7982C13.7166 30.9439 13.6939 31.2014 13.838 31.3749L14.4225 32.0764Z" fill="#1E818E" stroke="#1E818E" stroke-width="0.2"></path><path d="M3.20678 22.5969L3.99384 23.0547C4.18721 23.1676 4.43693 23.101 4.54851 22.9052C4.66064 22.7093 4.59401 22.4595 4.40009 22.3465L3.61304 21.8888C3.41912 21.7759 3.16995 21.843 3.05836 22.0383C2.94624 22.2336 3.01286 22.484 3.20678 22.5969Z" fill="#1E818E" stroke="#1E818E" stroke-width="0.2"></path><path d="M15.4216 29.6989L16.2092 30.1566C16.4026 30.2695 16.6518 30.203 16.7639 30.0071C16.876 29.8113 16.8094 29.5614 16.6155 29.4485L15.8279 28.9908C15.6334 28.8773 15.3853 28.9444 15.2732 29.1402C15.1611 29.3361 15.2277 29.5859 15.4216 29.6989Z" fill="#1E818E" stroke="#1E818E" stroke-width="0.2"></path><path d="M2.45083 25.112L3.34622 25.2713C3.56343 25.31 3.77739 25.1649 3.81694 24.9396C3.85594 24.717 3.70806 24.5048 3.4876 24.4655L2.59221 24.3062C2.37445 24.2664 2.16103 24.4159 2.12149 24.6379C2.08249 24.8605 2.22983 25.0727 2.45083 25.112Z" fill="#1E818E" stroke="#1E818E" stroke-width="0.2"></path><path d="M17.3763 26.9318L16.4809 26.773C16.2615 26.7332 16.0497 26.8822 16.0101 27.1053C15.9711 27.3279 16.119 27.5401 16.34 27.5794L17.2354 27.7381C17.4537 27.7774 17.6666 27.6306 17.7061 27.4059C17.7446 27.1833 17.5973 26.9711 17.3763 26.9318Z" fill="#1E818E" stroke="#1E818E" stroke-width="0.2"></path><path d="M3.81258 27.1053C3.77358 26.8822 3.56178 26.7332 3.34186 26.773L2.44647 26.9318C2.22547 26.9711 2.07759 27.1833 2.11659 27.4059C2.15613 27.6306 2.36901 27.7774 2.58731 27.7381L3.4827 27.5794C3.7037 27.5401 3.85158 27.3279 3.81258 27.1053Z" fill="#1E818E" stroke="#1E818E" stroke-width="0.2"></path><path d="M16.0101 24.9396C16.0497 25.1649 16.2637 25.3106 16.4809 25.2713L17.3763 25.112C17.5973 25.0727 17.7446 24.8605 17.7056 24.6379C17.6666 24.4154 17.4553 24.2664 17.2349 24.3062L16.3395 24.4655C16.119 24.5054 15.9711 24.717 16.0101 24.9396Z" fill="#1E818E" stroke="#1E818E" stroke-width="0.2"></path><path d="M3.99395 28.9905L3.2069 29.4482C3.01244 29.5612 2.94635 29.8116 3.05848 30.0069C3.17061 30.2027 3.41978 30.2693 3.61316 30.1563L4.40021 29.6986C4.59467 29.5857 4.66076 29.3353 4.54863 29.14C4.4365 28.9441 4.18787 28.8776 3.99395 28.9905Z" fill="#1E818E" stroke="#1E818E" stroke-width="0.2"></path><path d="M15.8279 23.0542L16.6155 22.5965C16.8094 22.4835 16.876 22.2331 16.7639 22.0378C16.6518 21.8414 16.4026 21.7749 16.2092 21.8883L15.4216 22.346C15.2277 22.459 15.1611 22.7094 15.2732 22.9047C15.3853 23.1005 15.6345 23.1671 15.8279 23.0542Z" fill="#1E818E" stroke="#1E818E" stroke-width="0.2"></path><path d="M5.40152 32.0768L5.98599 31.3753C6.13007 31.2023 6.10786 30.9443 5.93561 30.7986C5.76336 30.6535 5.50769 30.6764 5.36306 30.8494L4.77859 31.5509C4.63451 31.7239 4.65671 31.9819 4.82897 32.1276C5.00122 32.2721 5.25689 32.2503 5.40152 32.0768Z" fill="#1E818E" stroke="#1E818E" stroke-width="0.2"></path><path d="M14.4611 21.195L15.0456 20.4934C15.1896 20.3205 15.1674 20.0624 14.9952 19.9168C14.8229 19.7717 14.5667 19.7946 14.4226 19.9675L13.8382 20.6691C13.6941 20.842 13.7163 21.1001 13.8885 21.2457C14.0608 21.3903 14.3165 21.3685 14.4611 21.195Z" fill="#1E818E" stroke="#1E818E" stroke-width="0.2"></path><path d="M7.79659 31.8825C7.5875 31.8045 7.35295 31.9147 7.27604 32.1269L6.96511 32.9872C6.8882 33.1994 6.99707 33.434 7.20779 33.5115C7.41579 33.589 7.65087 33.4809 7.72833 33.2671L8.03926 32.4068C8.11617 32.194 8.0073 31.9594 7.79659 31.8825Z" fill="#1E818E" stroke="#1E818E" stroke-width="0.2"></path><path d="M12.0281 20.1629C12.2361 20.2404 12.4717 20.1324 12.5486 19.9185L12.8596 19.0582C12.9365 18.846 12.8276 18.6114 12.6169 18.5339C12.4067 18.4559 12.1727 18.5656 12.0963 18.7783L11.7854 19.6387C11.7085 19.8509 11.8174 20.0855 12.0281 20.1629Z" fill="#1E818E" stroke="#1E818E" stroke-width="0.2"></path></svg> 