<?xml version="1.0" encoding="UTF-8"?> <svg xmlns="http://www.w3.org/2000/svg" width="40" height="33" viewBox="0 0 40 33" fill="none"><path d="M40 11.426L28.5737 0L23.8833 4.62463C22.9258 5.46186 22.06 5.55287 20.9639 5.66795C20.3801 5.7294 19.7766 5.79265 19.1159 5.97917C18.6256 6.11738 18.1977 6.25955 17.8152 6.40819L11.4257 0.000308341L0 11.4263L5.9142 17.36C5.81838 17.4305 5.72237 17.5008 5.63574 17.5874L4.99342 18.2297C4.54695 18.6762 4.30137 19.2716 4.30137 19.9061C4.30137 20.5405 4.54719 21.1359 4.9928 21.5811L5.15218 21.7408C5.59835 22.1873 6.19371 22.4332 6.82819 22.4332C6.86984 22.4332 6.90945 22.4234 6.95067 22.4213C6.91717 23.0688 7.13855 23.7271 7.63198 24.2209L7.79044 24.3788C8.25258 24.841 8.85936 25.0724 9.46676 25.0724C9.50797 25.0724 9.54863 25.0627 9.58979 25.0606C9.58769 25.1017 9.57794 25.1412 9.57794 25.1827C9.57794 25.8172 9.82376 26.4125 10.2694 26.8578L10.4288 27.0175C10.8749 27.4639 11.4703 27.7098 12.1048 27.7098C12.1464 27.7098 12.186 27.7 12.2272 27.6979C12.1936 28.3452 12.4148 29.0032 12.9076 29.4964L13.067 29.6561C13.5292 30.1182 14.1359 30.349 14.743 30.349C15.3501 30.349 15.9572 30.1176 16.4196 29.6561L16.9677 29.1077H16.9674C17.0862 28.9889 17.1884 28.8582 17.2779 28.7203L19.9973 31.4475C20.4812 31.9314 21.1169 32.1736 21.7532 32.1736C22.3889 32.1736 23.0245 31.932 23.5084 31.4481C24.0368 30.9194 24.2662 30.2104 24.2175 29.5175C24.2758 29.5215 24.3322 29.5344 24.3912 29.5344C25.0558 29.5344 25.6788 29.2771 26.1464 28.8095C26.614 28.3419 26.8713 27.7188 26.8713 27.0542C26.8714 26.9946 26.8584 26.9377 26.8543 26.8788C26.913 26.8828 26.9697 26.8957 27.0291 26.8957C27.6943 26.8957 28.3174 26.6384 28.785 26.1709C29.2526 25.7033 29.5099 25.0802 29.5099 24.4156C29.5099 24.3567 29.497 24.3004 29.493 24.2422C29.5514 24.2464 29.6092 24.259 29.6677 24.259C30.3034 24.259 30.9391 24.0167 31.4229 23.5328C31.8905 23.0659 32.1484 22.4422 32.1484 21.7776C32.1484 21.113 31.8911 20.4893 31.4235 20.0218L31.4061 20.0042L40 11.426ZM28.5737 1.74499L38.2549 11.426L35.3825 14.2978L25.7019 4.6171L28.5737 1.74499ZM11.4257 1.7453L14.2978 4.61741L4.61679 14.2981L1.74499 11.4263L11.4257 1.7453ZM6.02533 20.869L5.86595 20.7093C5.65265 20.496 5.53547 20.211 5.53547 19.9061C5.53547 19.6011 5.65295 19.3156 5.86595 19.1023L6.50827 18.4599C6.72972 18.2388 7.02046 18.1279 7.3112 18.1279C7.60255 18.1279 7.89385 18.2388 8.1156 18.4611L8.27406 18.619C8.48705 18.8323 8.60453 19.1179 8.60453 19.4228C8.60453 19.7277 8.48736 20.0127 8.27406 20.226L7.63174 20.8684C7.20513 21.295 6.4507 21.2944 6.02533 20.869ZM8.66272 23.5058L8.50427 23.3479C8.06137 22.905 8.06137 22.1838 8.50427 21.7409L9.14658 21.0986L10.3638 19.8814C10.5852 19.6596 10.8763 19.5494 11.1673 19.5494C11.458 19.5494 11.7491 19.6596 11.9702 19.8808L12.1296 20.0404C12.3429 20.2538 12.46 20.5388 12.46 20.8437C12.46 21.1486 12.3429 21.4342 12.1296 21.6475L11.5192 22.2579L10.2701 23.507C9.82654 23.9493 9.10561 23.9505 8.66272 23.5058ZM11.3019 26.1456L11.1425 25.9859C10.9292 25.7726 10.812 25.4876 10.812 25.1827C10.812 24.8778 10.9292 24.5928 11.1425 24.3795L12.3916 23.1304C12.6049 22.9171 12.8902 22.7996 13.1951 22.7996C13.5 22.7996 13.7853 22.9171 13.9989 23.131L14.1573 23.2889C14.3703 23.5022 14.4878 23.7878 14.4878 24.0927C14.4878 24.3975 14.3706 24.6826 14.1573 24.8959L12.9082 26.145C12.4817 26.5716 11.7273 26.5711 11.3019 26.1456ZM16.095 28.2353L15.5469 28.7836C15.1034 29.2259 14.3825 29.2265 13.9402 28.7842L13.7808 28.6246C13.3379 28.1817 13.3379 27.4604 13.7808 27.0175L14.3292 26.4692C14.5509 26.2474 14.842 26.1365 15.133 26.1365C15.424 26.1365 15.7148 26.2474 15.9359 26.4686L16.0953 26.6283C16.3083 26.8416 16.4258 27.1266 16.4258 27.4315C16.4258 27.7364 16.3083 28.022 16.095 28.2353ZM30.5506 22.6604C30.0644 23.1467 29.2726 23.1479 28.7852 22.6604L26.3737 20.249C26.1327 20.008 25.7423 20.008 25.5012 20.249C25.2601 20.49 25.2602 20.8805 25.5012 21.1215L27.9126 23.533C28.3995 24.0199 28.3995 24.8116 27.9126 25.2984C27.4257 25.7847 26.6334 25.7859 26.1465 25.2984L23.7357 22.8876C23.4947 22.6466 23.1043 22.6466 22.8632 22.8876C22.6221 23.1286 22.6222 23.5191 22.8632 23.7602L25.274 26.171C25.5084 26.4054 25.6374 26.7187 25.6374 27.0537C25.6374 27.3888 25.5084 27.7027 25.274 27.9371C24.7871 28.424 23.9954 28.424 23.5085 27.9371L21.0971 25.5256C20.8561 25.2846 20.4656 25.2846 20.2246 25.5256C19.9835 25.7666 19.9836 26.1571 20.2246 26.3982L22.636 28.8096C23.1229 29.2965 23.1223 30.0888 22.636 30.5757C22.1491 31.0626 21.3574 31.0614 20.8705 30.5757L17.6993 27.3954C17.6857 27.3817 17.6678 27.3768 17.6533 27.3647C17.6364 26.7558 17.398 26.1858 16.9684 25.7565L16.809 25.5968C16.4651 25.2529 16.021 25.0445 15.5543 24.9653C15.6624 24.6912 15.722 24.3971 15.722 24.0928C15.722 23.4583 15.4765 22.8629 15.0297 22.4159L14.8712 22.258C14.5126 21.8991 14.0442 21.6915 13.5552 21.6211C13.6408 21.3736 13.6941 21.1139 13.6941 20.8437C13.6941 20.2093 13.4483 19.6139 13.0027 19.1687L12.8433 19.009C11.9978 18.164 10.674 18.1008 9.74639 18.8005C9.63983 18.4063 9.44207 18.042 9.14634 17.746L8.98789 17.5881C8.49569 17.096 7.83961 16.874 7.19359 16.9059L7.19766 16.9018L5.48494 15.1751L15.1685 5.49185L16.6324 6.96782C15.6732 7.51864 15.0256 8.17515 14.1789 9.0378C13.993 9.22729 12.1543 11.0693 12.1543 11.0693C11.1866 12.0371 11.1866 13.6121 12.1543 14.5801C12.6382 15.0643 13.2739 15.3062 13.9099 15.3062C14.5456 15.3062 15.1812 15.0643 15.6651 14.5801L18.1034 12.1418C18.6794 11.5658 20.106 12.2121 21.7588 12.9601C22.2749 13.1939 22.8216 13.4404 23.3911 13.6736C23.4149 13.7113 23.4319 13.7521 23.4647 13.785L30.5514 20.8943C30.7858 21.1287 30.9147 21.4421 30.9147 21.7771C30.9147 22.1122 30.7851 22.426 30.5506 22.6604ZM30.5352 19.1303L25.9193 14.4994C27.1017 14.7642 28.341 14.8428 29.5998 14.5503C29.9318 14.4735 30.1385 14.1421 30.062 13.8101C29.9848 13.4778 29.6528 13.2729 29.3214 13.3482C26.8672 13.9155 24.4226 12.8117 22.2673 11.8361C20.1981 10.8994 18.4103 10.0899 17.2308 11.2694L14.7925 13.7077C14.3059 14.1942 13.5139 14.1949 13.0267 13.7077C12.5401 13.2208 12.5401 12.4287 13.0267 11.9419C13.0267 11.9419 14.8709 10.0945 15.0597 9.90219C16.4125 8.52383 17.0916 7.83208 19.4509 7.16687C20.01 7.00898 20.5608 6.95116 21.0935 6.89545C22.2486 6.77371 23.4434 6.64839 24.6956 5.55386L24.8012 5.46155L34.5096 15.1699L30.5352 19.1303Z" fill="#1E818E"></path></svg> 