<svg width="15" height="14" viewBox="0 0 15 14" fill="none" xmlns="http://www.w3.org/2000/svg">
<path d="M0 11.6667H6.25V12.8333H0V11.6667ZM0 8.16667H6.25V9.33333H0V8.16667ZM13.75 5.83333H1.25C0.918479 5.83333 0.600537 5.71042 0.366116 5.49162C0.131696 5.27283 0 4.97609 0 4.66667V1.16667C0 0.857247 0.131696 0.560501 0.366116 0.341709C0.600537 0.122916 0.918479 0 1.25 0H13.75C14.0815 0 14.3995 0.122916 14.6339 0.341709C14.8683 0.560501 15 0.857247 15 1.16667V4.66667C15 4.97609 14.8683 5.27283 14.6339 5.49162C14.3995 5.71042 14.0815 5.83333 13.75 5.83333ZM1.25 1.16667V4.66667H13.75V1.16667H1.25ZM13.75 14H10C9.66848 14 9.35054 13.8771 9.11612 13.6583C8.8817 13.4395 8.75 13.1428 8.75 12.8333V9.33333C8.75 9.02391 8.8817 8.72717 9.11612 8.50838C9.35054 8.28958 9.66848 8.16667 10 8.16667H13.75C14.0815 8.16667 14.3995 8.28958 14.6339 8.50838C14.8683 8.72717 15 9.02391 15 9.33333V12.8333C15 13.1428 14.8683 13.4395 14.6339 13.6583C14.3995 13.8771 14.0815 14 13.75 14ZM10 9.33333V12.8333H13.75V9.33333H10Z" fill="#5C6AE0"/>
</svg>
