<?xml version="1.0" encoding="UTF-8"?> <svg xmlns="http://www.w3.org/2000/svg" width="46" height="44" viewBox="0 0 46 44" fill="none"><path fill-rule="evenodd" clip-rule="evenodd" d="M32.2603 0.253355C31.7658 0.740905 31.9886 1.5181 32.6712 1.68701C33.2286 1.825 33.8368 1.15845 33.646 0.618696C33.4204 -0.0195039 32.7234 -0.203276 32.2603 0.253355ZM35.2376 2.36356C34.712 2.88185 35.0772 3.74685 35.8217 3.74685C36.4384 3.74685 36.8622 3.17397 36.6389 2.6422C36.3855 2.03914 35.704 1.90363 35.2376 2.36356ZM30.4438 2.86607C29.9379 3.3649 30.0593 4.20724 30.6826 4.52515C31.7792 5.08435 32.8201 3.72299 31.9511 2.86607C31.6811 2.59981 31.5707 2.55412 31.1974 2.55412C30.8242 2.55412 30.7138 2.59981 30.4438 2.86607ZM21.6885 3.34536C21.3507 3.50959 21.155 3.76612 21.0236 4.2166C20.9517 4.46304 20.9314 4.48239 20.9247 4.3111C20.9201 4.19256 20.7772 3.95833 20.6073 3.7908C19.7462 2.94167 18.3835 3.60611 18.521 4.80801C18.6614 6.03743 20.2828 6.26992 20.8374 5.14014L21.0336 4.74039L21.1724 5.02288C21.5856 5.86421 22.9422 5.87036 23.3535 5.03279L23.4875 4.76012L23.6541 5.13243C24.2033 6.35993 26.0336 5.96128 26.0336 4.61424C26.0336 3.32875 24.1765 2.968 23.6537 4.15192C23.585 4.30761 23.5272 4.37927 23.5251 4.31119C23.5015 3.50729 22.4705 2.96515 21.6885 3.34536ZM33.1868 4.43524C33.0528 4.50707 32.8749 4.70773 32.7913 4.88122C32.1568 6.19992 34.0623 7.04428 34.7431 5.74604C35.1931 4.88792 34.0845 3.9542 33.1868 4.43524ZM21.7889 6.44764C21.6291 6.51617 21.4361 6.65994 21.36 6.7672C21.2382 6.93868 21.2075 6.94537 21.1044 6.8228C20.7393 6.3891 19.9771 6.4336 19.4305 6.92051C19.126 7.19181 19.0355 7.22915 18.8807 7.14749C18.3692 6.87757 17.5123 7.15731 17.2995 7.66376C17.1896 7.92561 17.1724 7.93148 16.6342 7.89313C16.0093 7.84854 15.4845 8.2104 15.3724 8.76318C15.3239 9.00209 15.2882 9.02328 14.9775 8.99723C14.3771 8.94695 13.7362 9.49744 13.7152 10.0816C13.7071 10.3095 13.6673 10.3523 13.4635 10.3525C12.8792 10.353 12.2116 11.1233 12.2982 11.6971C12.3386 11.9647 12.3183 11.9908 12.0291 12.0443C11.4578 12.1501 11.0721 12.7906 11.1799 13.4551C11.2305 13.7669 11.2117 13.8067 10.9623 13.9156C10.4084 14.1572 10.1531 14.9262 10.443 15.479C10.5703 15.7217 10.5642 15.7405 10.3108 15.8882C9.76432 16.2065 9.62559 17.2314 10.0788 17.6024C10.19 17.6933 10.1652 17.7662 9.92184 18.0649C9.50092 18.5813 9.59489 19.5872 10.0812 19.7712C10.1931 19.8136 10.1865 19.8621 10.0414 20.0647C9.63769 20.6281 9.74273 21.3307 10.2905 21.73C10.5509 21.92 10.5598 21.9467 10.4392 22.1748C10.1505 22.7203 10.4235 23.4574 11.0244 23.7554C11.2405 23.8625 11.295 23.9345 11.2334 24.0306C10.8844 24.5742 11.5276 25.6729 12.1954 25.6743C12.3235 25.6746 12.3473 25.7244 12.3029 25.8992C12.162 26.4527 12.683 27.1539 13.3232 27.2723C13.6088 27.3251 13.6601 27.3757 13.7137 27.6573C13.8337 28.2887 14.5448 28.8023 15.1061 28.6634C15.2834 28.6196 15.3339 28.6431 15.3342 28.7694C15.3354 29.3404 16.0479 29.8542 16.7284 29.7747C17.14 29.7266 17.1666 29.7377 17.3222 30.0226C17.6211 30.5701 18.4597 30.8192 18.9241 30.4984C19.0976 30.3786 19.1341 30.3934 19.3647 30.6786C19.7929 31.2077 20.7243 31.3077 21.0971 30.8648C21.18 30.7662 21.2521 30.7912 21.4734 30.9949C21.9522 31.4361 22.703 31.4187 23.1435 30.9563C23.354 30.7353 23.3584 30.7348 23.5483 30.9092C23.9988 31.3231 24.9367 31.1647 25.2633 30.6193C25.4023 30.3874 25.4312 30.3771 25.6055 30.4976C26.0785 30.8242 27.009 30.5417 27.2533 29.9974C27.3696 29.7384 27.4068 29.7206 27.7257 29.7708C28.3995 29.8771 29.0491 29.4968 29.1564 28.9334C29.2106 28.6482 29.237 28.6282 29.5084 28.668C30.0785 28.7517 30.8718 28.0965 30.8718 27.5419C30.8718 27.3794 30.9234 27.326 31.0811 27.3258C31.6656 27.3248 32.3064 26.5987 32.2347 26.0187C32.2005 25.7429 32.2227 25.6746 32.346 25.6743C32.914 25.673 33.4347 24.9645 33.3551 24.3015C33.3069 23.8998 33.3183 23.8724 33.5851 23.7561C34.1348 23.5162 34.4177 22.5973 34.0859 22.1302C33.9628 21.9569 33.9692 21.9295 34.1557 21.8288C34.7106 21.5295 34.9112 20.8095 34.6025 20.2252L34.4136 19.8678L34.6366 19.6064C35.056 19.115 35.055 18.5625 34.6336 18.0688L34.402 17.7974L34.5905 17.4926C34.9134 16.9702 34.8095 16.4088 34.3058 15.9551C34.061 15.7347 34.0327 15.6667 34.1192 15.5072C34.3936 15.0017 34.1147 14.1539 33.6001 13.9293C33.3471 13.8189 33.3343 13.7847 33.3358 13.2225C33.3376 12.5697 33.0313 12.1506 32.4715 12.0396C32.2407 11.9938 32.2209 11.9545 32.2203 11.5437C32.2197 10.9943 31.8697 10.5782 31.2764 10.4215C30.9312 10.3303 30.8845 10.2844 30.8365 9.98866C30.7354 9.36477 29.9567 8.84282 29.3912 9.0198C29.2286 9.07072 29.197 9.04219 29.197 8.84373C29.197 8.35224 28.639 7.92249 27.9888 7.91322C27.453 7.90552 27.4066 7.88735 27.2414 7.61954C26.9246 7.10584 26.0434 6.86711 25.612 7.17814C25.4518 7.29365 25.4186 7.28145 25.2796 7.05611C24.9586 6.53572 24.2626 6.37663 23.672 6.68875C23.3137 6.87812 23.3136 6.87812 23.1152 6.69481C22.7158 6.32598 22.2671 6.2424 21.7889 6.44764ZM35.5625 6.53792C35.1593 6.71105 34.8726 7.10419 34.8726 7.48384C34.8726 8.58344 36.3707 9.01677 36.8714 8.06204C37.3433 7.16208 36.472 6.14744 35.5625 6.53792ZM30.9927 6.77087C30.0019 7.3665 30.3607 8.8575 31.5365 9.03099C32.1831 9.12632 32.9191 8.46711 32.9183 7.79313C32.9174 6.85739 31.8187 6.27414 30.9927 6.77087ZM10.5207 8.47032C9.8542 8.75602 9.64104 9.66479 10.0882 10.3145C10.2224 10.5094 10.262 10.6115 10.1763 10.5414C10.0906 10.4713 9.83764 10.4139 9.61415 10.4139C8.39651 10.4139 7.91055 11.9028 8.88805 12.6384L9.14652 12.8329L8.89782 12.7282C7.61217 12.1866 6.66668 14.2289 7.86431 14.9606L8.12306 15.1188L7.79742 15.1215C6.51055 15.1325 6.17886 16.9587 7.37082 17.4704C7.58612 17.5628 7.61133 17.5947 7.47177 17.5978C6.07819 17.6293 6.14118 20.0344 7.5369 20.0859C7.72559 20.0929 7.71945 20.1031 7.48507 20.1723C6.17207 20.5603 6.43212 22.5457 7.79742 22.5573L8.12306 22.5601L7.86431 22.7183C6.72148 23.4165 7.44367 25.2528 8.75947 24.9943C9.04985 24.9373 9.05087 24.9383 8.84358 25.0818C7.73554 25.8487 8.80971 27.8028 10.0137 27.2104L10.2865 27.0763L10.0654 27.3975C9.2097 28.641 10.9265 30.0519 11.9522 28.9481C12.8475 27.9848 11.7269 26.3585 10.5835 26.9619C10.4298 27.043 10.4373 27.0086 10.6361 26.7197C11.2482 25.8304 10.3908 24.564 9.37075 24.8508L9.05348 24.9399L9.3006 24.7339C10.1205 24.0502 9.78842 22.7206 8.76393 22.585L8.38135 22.5345L8.70336 22.2436C9.3648 21.6457 9.19881 20.6418 8.37334 20.2478C8.02155 20.0799 7.9822 20.0366 8.13125 19.982C9.09693 19.6276 9.06278 17.7148 8.09012 17.6884C8.00592 17.6861 8.11674 17.5915 8.3365 17.4781C9.29753 16.982 9.38369 15.8264 8.49923 15.2945L8.2161 15.1243L8.62251 15.124C9.66598 15.1231 10.2112 13.4303 9.32535 12.9415C9.22337 12.8852 9.30627 12.8605 9.59712 12.8605C10.6203 12.8605 11.2064 11.7878 10.6361 10.9592C10.4163 10.6397 10.4146 10.6279 10.6032 10.7274C10.975 10.9236 11.618 10.7747 11.9522 10.415C12.8965 9.39899 11.807 7.91891 10.5207 8.47032ZM32.8162 8.54188C31.5696 9.36064 32.632 11.3962 33.9518 10.7177L34.1748 10.6031L33.952 10.8419C33.2573 11.587 33.8766 12.8605 34.9337 12.8605C35.2246 12.8605 35.3075 12.8852 35.2055 12.9415C34.3451 13.4163 34.8015 14.9844 35.8334 15.0991L36.2762 15.1484L36.0039 15.3116C35.1401 15.8296 35.2421 17.0374 36.1877 17.4893C36.4111 17.5961 36.5256 17.6855 36.4421 17.688C35.4552 17.7177 35.42 19.6226 36.3996 19.982C36.549 20.0367 36.5112 20.0788 36.165 20.2442C35.3331 20.6413 35.1556 21.5714 35.792 22.1991L36.1533 22.5552H35.8418C34.8411 22.5552 34.3971 23.9703 35.1735 24.6854C35.4345 24.9259 35.4387 24.939 35.2292 24.8606C34.2097 24.4783 33.2614 25.7994 33.8947 26.7197C34.0936 27.0086 34.101 27.043 33.9474 26.9619C32.6132 26.2577 31.5572 28.3854 32.854 29.1651C33.9716 29.8371 35.2097 28.479 34.4654 27.3975L34.2444 27.0763L34.5172 27.2104C35.7211 27.8028 36.7953 25.8487 35.6873 25.0818C35.48 24.9383 35.481 24.9373 35.7714 24.9943C37.0434 25.2443 37.7507 23.6427 36.7389 22.8032L36.4401 22.5552H36.7352C38.0383 22.5552 38.3267 20.5361 37.0746 20.1787C36.8088 20.1028 36.8027 20.0937 37.0126 20.0857C38.4311 20.0315 38.4176 17.6378 36.9985 17.5972C36.9295 17.5952 37.0021 17.5382 37.16 17.4704C38.3424 16.9627 37.9979 15.1236 36.7204 15.1236H36.4104L36.7105 14.9172C37.8519 14.1322 36.894 12.188 35.633 12.7304C35.4018 12.8298 35.4051 12.8208 35.68 12.6028C36.7067 11.7883 35.8144 10.011 34.59 10.4319L34.3253 10.5229L34.5055 10.2313C35.1856 9.13164 33.8903 7.83634 32.8162 8.54188ZM22.4495 8.92612C22.6041 8.89539 22.8458 8.78969 22.9865 8.69125C23.1272 8.5928 23.2426 8.54445 23.243 8.58381C23.2459 8.91163 24.3253 9.19063 24.7413 8.97108C24.8941 8.89043 24.97 8.92117 25.1894 9.15274C25.5356 9.51817 25.8963 9.64552 26.3825 9.57396C26.6939 9.52808 26.778 9.54414 26.778 9.64947C26.778 9.98811 27.9294 10.6241 28.1496 10.407C28.1828 10.3743 28.2959 10.5237 28.4011 10.7393C28.6076 11.1623 29.0979 11.5454 29.4331 11.5454C29.5973 11.5454 29.6544 11.613 29.7021 11.8639C29.7817 12.2825 30.1476 12.7003 30.5491 12.8309C30.8169 12.918 30.8629 12.9704 30.8201 13.1387C30.7185 13.538 31.1382 14.2238 31.5893 14.3958C31.7738 14.4661 31.7847 14.5034 31.6948 14.7578C31.5582 15.1444 31.8084 15.7967 32.1755 16.0105C32.4191 16.1524 32.4301 16.1807 32.3077 16.353C32.0339 16.7385 32.2043 17.5669 32.6076 17.8101C32.7002 17.866 32.6862 17.9468 32.5438 18.1771C32.3099 18.5553 32.3099 19.1236 32.5438 19.5017C32.6862 19.732 32.7002 19.8129 32.6076 19.8687C32.2028 20.1128 32.0341 20.9405 32.3098 21.3288C32.4338 21.5033 32.426 21.5295 32.2176 21.6395C31.8516 21.8326 31.5686 22.5026 31.6893 22.8904C31.7792 23.1795 31.7694 23.2143 31.5774 23.2863C31.1271 23.4551 30.6282 24.351 30.8169 24.6521C30.8481 24.7018 30.7279 24.7897 30.5501 24.8476C30.1506 24.9776 29.782 25.3953 29.7037 25.8064C29.6538 26.0689 29.5968 26.125 29.3306 26.1743C28.9218 26.2499 28.4909 26.613 28.3656 26.9871C28.2765 27.2535 28.229 27.2844 27.9102 27.2844C27.4779 27.2844 27.105 27.5107 26.8585 27.9227C26.6869 28.2097 26.6556 28.224 26.3956 28.1346C26.0211 28.0059 25.3996 28.2399 25.1543 28.6022C24.9887 28.8468 24.9561 28.859 24.7846 28.7405C24.3958 28.4719 23.5552 28.6412 23.3093 29.0378C23.2526 29.1292 23.1706 29.1153 22.9371 28.9748C22.5468 28.7401 21.9968 28.7444 21.6018 28.9851C21.4295 29.0901 21.2885 29.1348 21.2885 29.0843C21.2885 28.7617 20.2068 28.4876 19.7938 28.7056C19.6452 28.7839 19.5575 28.7448 19.2896 28.4806C18.9335 28.1294 18.4871 27.9987 18.1173 28.1373C17.9029 28.2177 17.862 28.1955 17.7092 27.9157C17.4826 27.5008 17.147 27.2987 16.6678 27.2886C16.3403 27.2817 16.2639 27.2453 16.2206 27.0755C16.1238 26.6954 15.6193 26.2284 15.2409 26.1686C14.9195 26.118 14.8842 26.0832 14.8329 25.7662C14.7719 25.3907 14.2981 24.8954 13.9069 24.7986C13.7335 24.7557 13.7003 24.6964 13.7316 24.4861C13.7889 24.1011 13.4995 23.585 13.0988 23.3576C12.7914 23.1831 12.7612 23.1355 12.8441 22.9563C12.9975 22.6242 12.8457 22.1283 12.4849 21.7828C12.2071 21.5167 12.1718 21.4396 12.2564 21.2837C12.4866 20.8594 12.3065 20.0996 11.9206 19.8673C11.8245 19.8094 11.8364 19.7424 11.9774 19.5462C12.2762 19.1306 12.2949 18.7942 12.0462 18.3098C11.9237 18.0712 11.8603 17.8761 11.9053 17.8761C12.2191 17.8761 12.4768 16.8011 12.2591 16.4C12.1777 16.2503 12.215 16.1707 12.4837 15.9209C12.8381 15.5913 12.9989 15.0626 12.8466 14.7276C12.7675 14.5537 12.7985 14.503 13.0813 14.3438C13.4845 14.1167 13.7721 13.6191 13.7291 13.223C13.701 12.9639 13.7288 12.9211 13.9575 12.8716C14.347 12.7873 14.7659 12.3255 14.834 11.9054C14.8839 11.5977 14.9263 11.5454 15.1254 11.5454C15.5912 11.5454 16.2642 10.911 16.2642 10.472C16.2642 10.4267 16.4002 10.4039 16.5666 10.4214C16.9717 10.4642 17.4752 10.1822 17.7064 9.78296C17.8679 9.50414 17.9193 9.47359 18.0957 9.55157C18.4354 9.70176 18.9715 9.54322 19.3058 9.19375C19.5591 8.92878 19.6398 8.89199 19.7916 8.97218C20.1984 9.18687 21.2885 8.93282 21.2885 8.62335C21.2885 8.57895 21.4864 8.64152 21.7284 8.76226C22.0382 8.91704 22.2513 8.96539 22.4495 8.92612ZM37.1766 9.12008C36.8817 9.27779 36.6404 9.68818 36.6404 10.0316C36.6404 10.8974 37.7281 11.4075 38.3949 10.8543C39.4186 10.0049 38.3543 8.48995 37.1766 9.12008ZM20.7145 10.0743C14.2762 11.2244 11.1621 18.5899 14.8749 23.8859C18.8355 29.5355 27.5165 28.7636 30.4651 22.4997C33.4522 16.154 27.7019 8.82603 20.7145 10.0743ZM4.90363 11.9384C4.17418 12.4215 4.24917 13.4022 5.04486 13.7852C5.97156 14.2313 6.94292 13.1758 6.40551 12.3069C6.05297 11.7366 5.43657 11.5854 4.90363 11.9384ZM38.529 11.9088C37.9507 12.2564 37.7974 12.8642 38.1554 13.3898C38.6453 14.1091 39.6398 14.0351 40.0282 13.2505C40.4806 12.3367 39.4102 11.3788 38.529 11.9088ZM1.05188 14.5005C0.443854 14.8443 0.485163 15.728 1.12157 15.9918C1.70885 16.2353 2.30795 15.8468 2.30795 15.2223C2.30795 14.5951 1.60204 14.1893 1.05188 14.5005ZM4.38585 14.7655C3.20236 15.1034 3.46753 16.8789 4.69912 16.8636C5.53026 16.8533 6.05577 15.8062 5.54878 15.1708C5.38707 14.968 4.82501 14.6359 4.70675 14.6731C4.69233 14.6777 4.54793 14.7193 4.38585 14.7655ZM39.5557 14.7655C38.6658 15.0196 38.511 16.1764 39.2983 16.6883C40.256 17.3107 41.4273 16.0592 40.7186 15.1708C40.5569 14.968 39.9948 14.6359 39.8766 14.6731C39.8621 14.6777 39.7177 14.7193 39.5557 14.7655ZM20.8753 15.0702C21.0368 15.1867 21.0559 15.3174 21.0559 16.3087C21.0559 16.9183 21.0717 17.4171 21.0911 17.4172C21.1105 17.4172 21.2861 17.275 21.4813 17.1012C23.2165 15.5553 25.6038 18.0295 24.4161 20.1429C23.7713 21.2901 21.2529 21.5811 21.1884 20.5158C21.1845 20.4516 21.1285 20.5436 21.064 20.7203C20.9114 21.138 20.5417 21.2883 20.2678 21.0439C19.9585 20.7679 19.975 15.2976 20.2858 15.083C20.5411 14.9065 20.645 14.9043 20.8753 15.0702ZM28.3364 15.1868C28.2123 15.2189 28.1736 15.3253 28.1736 15.6349C28.1736 15.8583 28.1317 16.0411 28.0805 16.0411C28.0294 16.0411 27.9875 15.8583 27.9875 15.6349C27.9875 15.3253 27.9488 15.2189 27.8247 15.1868C27.7352 15.1638 27.8503 15.1449 28.0805 15.1449C28.3108 15.1449 28.4259 15.1638 28.3364 15.1868ZM29.3373 15.3649C29.5737 15.0091 29.6622 15.0684 29.6622 15.5824C29.6622 15.8347 29.6204 16.0411 29.5692 16.0411C29.518 16.0411 29.4752 15.8863 29.4741 15.697L29.4721 15.353L29.2994 15.5744L29.1268 15.7959L29.0005 15.5744C28.8756 15.3551 28.8738 15.3566 28.8163 15.72C28.7612 16.0678 28.7577 16.0606 28.7484 15.5824L28.7385 15.0777L28.9576 15.342L29.1768 15.6063L29.3373 15.3649ZM18.4996 16.8222C19.3116 17.2363 19.6656 20.9558 18.9107 21.1426C18.4068 21.2674 18.3111 21.0229 18.3111 19.611C18.3111 17.9274 18.1234 17.5091 17.3675 17.5091C16.4401 17.5091 16.2642 17.8295 16.2642 19.5187C16.2642 20.8773 16.1713 21.179 15.7525 21.179C15.2413 21.179 14.9293 17.5296 15.3856 16.8873C15.6411 16.5275 16.2642 16.7305 16.2642 17.1735C16.2642 17.3453 16.2852 17.3401 16.5328 17.1061C17.0611 16.6071 17.8535 16.4927 18.4996 16.8222ZM28.637 16.8441C29.2488 17.2323 29.3831 17.7164 29.3831 19.532C29.3831 20.8763 29.2891 21.179 28.8714 21.179C28.453 21.179 28.3597 20.8771 28.3597 19.5229C28.3597 17.8218 28.2048 17.5091 27.363 17.5091C26.5236 17.5091 26.3127 17.9288 26.3127 19.6005C26.3127 21.0553 26.2084 21.3074 25.6819 21.1247L25.4288 21.037V18.939C25.4288 16.6406 25.4422 16.5862 25.9756 16.7181C26.1564 16.763 26.2406 16.8552 26.2806 17.0528C26.348 17.3847 26.3218 17.3848 26.6847 17.0505C27.1924 16.583 28.0778 16.4893 28.637 16.8441ZM21.8853 17.5477C21.3308 17.7858 20.9275 18.5658 21.0442 19.1747C21.3756 20.9048 23.7076 20.6915 23.7076 18.9312C23.7076 17.874 22.7748 17.1658 21.8853 17.5477ZM3.63463 18.1226C3.33476 18.4362 3.31438 18.4944 3.35578 18.92C3.48883 20.2848 5.47137 20.2094 5.47137 18.8394C5.47137 17.8503 4.32351 17.4023 3.63463 18.1226ZM39.3627 18.1226C39.0628 18.4362 39.0424 18.4944 39.0839 18.92C39.2169 20.2848 41.1994 20.2094 41.1994 18.8394C41.1994 17.8503 40.0516 17.4023 39.3627 18.1226ZM0.577368 18.2798C0.109368 18.7412 0.221111 19.375 0.813043 19.6167C1.79473 20.0177 2.48352 18.6558 1.56854 18.123C1.17442 17.8933 0.929997 17.932 0.577368 18.2798ZM43.0004 18.0588C42.2234 18.368 42.4098 19.5453 43.2569 19.6782C43.5381 19.7223 43.6422 19.6876 43.8942 19.4656C44.6307 18.8167 43.9175 17.6939 43.0004 18.0588ZM4.14673 20.9506C3.49674 21.3111 3.42864 22.2763 4.01964 22.7505C4.6821 23.282 5.75049 22.7566 5.75049 21.8992C5.75049 21.1452 4.80463 20.5858 4.14673 20.9506ZM39.357 20.9655C38.5035 21.3803 38.6359 22.6179 39.5663 22.9206C40.176 23.119 40.9203 22.581 40.9203 21.9419C40.9203 21.0856 40.1282 20.5907 39.357 20.9655ZM0.861612 21.863C0.347928 22.3694 0.74075 23.2892 1.47057 23.2892C2.20039 23.2892 2.59321 22.3694 2.07953 21.863C1.9115 21.6972 1.75063 21.6377 1.47057 21.6377C1.19051 21.6377 1.02965 21.6972 0.861612 21.863ZM42.4513 21.863C41.9342 22.3728 42.3154 23.2892 43.0446 23.2892C43.5118 23.2892 43.8976 22.9137 43.8976 22.4588C43.8976 21.7292 42.9731 21.3484 42.4513 21.863ZM5.12795 23.8514C4.2796 24.087 4.15483 25.2976 4.9308 25.764C5.47351 26.0904 5.99743 25.961 6.37574 25.4075C6.94534 24.574 6.14053 23.5703 5.12795 23.8514ZM38.6194 23.8829C37.9995 24.1508 37.7828 24.8627 38.1551 25.4075C38.6991 26.2035 39.7531 26.0694 40.0733 25.1634C40.3688 24.3273 39.4543 23.5219 38.6194 23.8829ZM1.83557 25.3923C1.49253 25.7306 1.47848 26.1113 1.79519 26.4825C2.22244 26.9832 2.94138 26.8762 3.19659 26.274C3.56531 25.4036 2.5145 24.7229 1.83557 25.3923ZM41.5246 25.3456C41.2137 25.6523 41.1536 25.9632 41.3374 26.314C41.6349 26.8811 42.3245 26.9643 42.7356 26.4825C43.4091 25.6932 42.2632 24.6174 41.5246 25.3456ZM44.2561 26.4997C43.8499 26.9004 44.0914 27.5096 44.6564 27.5096C45.2524 27.5096 45.5146 26.7771 45.0481 26.4153C44.7199 26.1606 44.5855 26.175 44.2561 26.4997ZM6.17049 26.791C5.57632 27.2519 5.56106 27.9929 6.13597 28.4699C7.03987 29.22 8.35864 28.0741 7.7094 27.1029C7.35286 26.5696 6.64174 26.4255 6.17049 26.791ZM37.1766 26.7357C36.6933 26.9943 36.51 27.6371 36.7752 28.1428C37.0851 28.7337 37.8855 28.8926 38.4004 28.4654C39.4061 27.6309 38.3343 26.1162 37.1766 26.7357ZM3.37346 28.6699C2.86471 29.2112 3.23976 30.0786 3.9827 30.0786C4.46 30.0786 4.82008 29.7235 4.82008 29.2528C4.82008 28.5071 3.88184 28.129 3.37346 28.6699ZM39.9389 28.6699C39.6202 29.009 39.6276 29.5128 39.956 29.8367C40.4932 30.3664 41.3855 29.996 41.3855 29.2434C41.3855 28.5068 40.4433 28.1332 39.9389 28.6699ZM12.403 28.7357C11.258 29.2555 11.3926 30.8022 12.6063 31.0711C13.6521 31.3028 14.4945 30.1739 13.9423 29.2807C13.6001 28.7274 12.9379 28.4929 12.403 28.7357ZM31.1528 28.7668C30.5486 29.0746 30.2294 29.8559 30.5024 30.3589C30.5847 30.5104 30.5498 30.5031 30.2568 30.307C29.2274 29.6181 27.9425 30.6599 28.4437 31.7771C28.8939 32.7807 30.1999 32.8054 30.7121 31.8199C30.887 31.4835 30.8611 30.9765 30.6566 30.7326C30.5986 30.6635 30.7129 30.715 30.9105 30.8473C31.5407 31.269 32.3607 31.1174 32.7363 30.5099C33.3584 29.5039 32.2028 28.2319 31.1528 28.7668ZM8.09496 29.2183C7.38561 29.5734 7.32309 30.5669 7.97922 31.0578C8.3913 31.3661 9.08735 31.2283 9.45654 30.7654C10.1206 29.9331 9.06446 28.733 8.09496 29.2183ZM35.5628 29.1582C34.9459 29.4043 34.6778 30.2683 35.0669 30.7561C35.5521 31.3644 36.2352 31.404 36.7264 30.8524C37.4703 30.0168 36.5973 28.7456 35.5628 29.1582ZM42.6113 30.1074C42.0361 30.7112 42.8894 31.5399 43.4831 30.9543C43.6088 30.8304 43.7116 30.6428 43.7116 30.5373C43.7116 30.0165 42.9729 29.7279 42.6113 30.1074ZM26.6877 31.2969C26.5613 31.36 26.3624 31.5513 26.2458 31.722C25.4152 32.9374 27.0851 34.2897 28.1364 33.2531C29.1322 32.2711 27.9458 30.6691 26.6877 31.2969ZM33.1953 31.4276C32.6779 31.7793 32.5318 32.2583 32.7831 32.7803C33.1734 33.5914 34.3466 33.5751 34.7422 32.753C35.1704 31.8633 34.0132 30.8717 33.1953 31.4276ZM5.59856 31.5256C5.1608 31.8753 5.10237 32.3845 5.45537 32.7728C6.03223 33.4072 7.07913 32.8894 6.91919 32.0487C6.80708 31.4593 6.05465 31.1613 5.59856 31.5256ZM37.8428 31.6312C37.3883 32.0794 37.5575 32.8134 38.1606 33.0096C39.0539 33.3004 39.6831 32.243 38.9836 31.6266C38.5848 31.2752 38.2022 31.2768 37.8428 31.6312ZM30.6637 33.1581C30.1078 33.4555 29.9567 34.2683 30.3678 34.75C31.21 35.737 32.7288 34.7109 32.1263 33.562C31.8657 33.065 31.1876 32.8778 30.6637 33.1581ZM40.4551 33.3548C39.9829 33.5261 39.8393 34.0588 40.176 34.3907C40.6548 34.8629 41.4666 34.3174 41.1867 33.7116C41.1078 33.541 40.7162 33.2576 40.6136 33.297C40.6031 33.3009 40.5319 33.327 40.4551 33.3548ZM35.2376 34.2002C34.4437 34.9831 35.5938 36.1284 36.4231 35.3807C36.7067 35.1251 36.7646 34.8044 36.5921 34.4458C36.3223 33.8853 35.6758 33.768 35.2376 34.2002ZM32.2335 36.284C32.0563 36.4589 31.9883 36.6208 31.9883 36.8679C31.9883 37.1151 32.0563 37.2769 32.2335 37.4518C32.4109 37.6266 32.575 37.6937 32.8257 37.6937C33.0763 37.6937 33.2405 37.6266 33.4178 37.4518C33.595 37.2769 33.663 37.1151 33.663 36.8679C33.663 36.6208 33.595 36.4589 33.4178 36.284C33.2405 36.1093 33.0763 36.0422 32.8257 36.0422C32.575 36.0422 32.4109 36.1093 32.2335 36.284ZM37.1107 36.5612C36.8805 36.8498 36.9252 37.0973 37.2618 37.3988C37.6442 37.7413 38.2221 37.4494 38.2221 36.9138C38.2221 36.3225 37.4872 36.0893 37.1107 36.5612ZM34.1706 40.9466C34.045 41.0705 33.9422 41.2581 33.9422 41.3636C33.9422 41.8844 34.6808 42.173 35.0425 41.7935C35.6222 41.185 34.7691 40.3563 34.1706 40.9466ZM36.644 40.9222C36.0945 41.5038 36.8578 42.3358 37.483 41.8366C37.6263 41.7222 37.6948 41.5691 37.6948 41.3636C37.6948 40.7978 37.0267 40.517 36.644 40.9222ZM35.7045 42.9287C35.4408 43.1887 35.4942 43.6291 35.8182 43.8666C36.1412 44.1034 36.4972 44.019 36.6849 43.6611C37.0199 43.0224 36.2174 42.4229 35.7045 42.9287Z" fill="white"></path></svg> 