<?xml version="1.0" encoding="UTF-8"?> <svg xmlns="http://www.w3.org/2000/svg" width="67" height="39" viewBox="0 0 67 39" fill="none"><path fill-rule="evenodd" clip-rule="evenodd" d="M64.2571 0.351333C62.9192 1.0242 63.5607 3.05358 65.0401 2.82813C66.6159 2.58797 66.4573 0.294519 64.8621 0.253243L64.4721 0.243164L64.2571 0.351333ZM65.2176 0.505608C65.4284 0.577811 65.7146 0.855283 65.8251 1.09451C66.338 2.20515 64.8621 3.15962 64.0269 2.25746C63.2509 1.41938 64.1261 0.131695 65.2176 0.505608ZM26.9609 3.8614V7.23504L26.6988 7.02476C23.4667 4.43158 19.0812 8.00297 20.3971 12.1566C21.3072 15.0292 24.8733 16.1405 26.8184 14.1577L26.9609 14.0124V14.4647V14.9169L28.3482 14.9091L29.7356 14.9013L29.7432 7.69454L29.7507 0.48776H28.3558H26.9609V3.8614ZM54.5581 7.70204V14.9163H55.938H57.3178V7.70204V0.48776H55.938H54.5581V7.70204ZM59.2076 7.70204V14.9163H60.6025H61.9974V7.70204V0.48776H60.6025H59.2076V7.70204ZM64.3071 1.53765V2.25758H64.4421H64.5771V1.96967V1.68176L64.7646 1.70252C65.0684 1.7362 65.147 1.81993 65.147 2.10955V2.25758H65.277H65.407L65.3958 2.0851C65.3793 1.82986 65.3295 1.69247 65.2325 1.6352L65.1485 1.58559L65.2355 1.54902C65.3739 1.49086 65.4266 1.38368 65.4108 1.19281C65.3853 0.88552 65.2565 0.817726 64.6981 0.817726H64.3071V1.53765ZM65.057 1.05764C65.3193 1.19803 65.156 1.46782 64.7901 1.49851L64.5771 1.51636V1.25268V0.989009L64.7856 1.0065C64.9002 1.0161 65.0224 1.03913 65.057 1.05764ZM0.143555 8.032V14.9163H1.59841H3.05326V9.21449V3.51266L4.08066 3.52337L5.10806 3.53407L5.34773 3.61795C7.49015 4.36787 6.85613 7.02746 4.51562 7.10849L4.01317 7.12588V8.76492V10.404L5.46322 12.6527L6.91331 14.9013L8.6579 14.9091C9.61745 14.9133 10.4025 14.9093 10.4025 14.9002C10.4025 14.8911 9.50823 13.6126 8.41523 12.059C6.10486 8.77518 6.34681 9.19211 6.69019 9.08634C10.0377 8.05504 10.5078 3.47627 7.44782 1.70714C6.52401 1.17304 6.31463 1.14769 2.82712 1.14769H0.143555V8.032ZM33.4102 8.03014V14.9163L36.4474 14.9163C39.4699 14.9163 39.893 14.9047 40.3487 14.8099C42.2746 14.409 43.6692 12.7913 43.6692 10.9582C43.6692 9.35148 43.0027 8.29103 41.5244 7.54587C41.4089 7.48765 41.3092 7.43521 41.3027 7.42936C41.2963 7.42348 41.3739 7.3301 41.4752 7.22185C43.2108 5.36641 42.5906 2.43165 40.2678 1.50895C39.4565 1.18666 39.2466 1.16878 36.1175 1.15549L33.4102 1.14397V8.03014ZM38.4342 3.68286C40.3683 4.09253 39.8326 6.47093 37.7973 6.51068L37.1598 6.52313V7.78V9.0369H38.1893C40.1472 9.0369 41.0192 9.89062 40.5349 11.3332C40.207 12.3102 39.7793 12.4855 37.7223 12.4861L36.3199 12.4866V8.062V3.63744L37.2723 3.63795C37.9969 3.63837 38.2749 3.64911 38.4342 3.68286ZM13.9272 6.05562C10.3598 6.57562 8.70683 10.7282 10.9541 13.5244C12.4658 15.4053 15.3277 15.7782 17.4068 14.3653C17.8712 14.0497 18.6929 13.135 18.6439 12.9881C18.6352 12.9621 16.5947 12.0027 16.4619 11.9622C16.4323 11.9532 16.3862 12.0008 16.3269 12.1019C15.464 13.5737 12.8623 13.0082 12.8623 11.3489V11.1967H15.8614H18.8605L18.8798 11.1201C18.9637 10.7856 18.8459 9.50447 18.6797 8.94511C18.1012 6.99786 16.044 5.74707 13.9272 6.05562ZM44.5758 9.49436L44.5841 12.4716L44.6669 12.7354C45.77 16.2531 52.2681 16.1282 53.2292 12.5709C53.2754 12.3998 53.2813 12.0986 53.2904 9.44936L53.3005 6.51716H51.8895H50.4785L50.4776 8.96941C50.4766 11.6542 50.4712 11.7568 50.3154 12.0777C49.774 13.1927 48.0876 13.2038 47.5494 12.096C47.3882 11.7643 47.3888 11.776 47.3888 9.05043V6.51716H45.9781H44.5674L44.5758 9.49436ZM15.0334 8.08693C15.6322 8.30585 16.132 8.9653 16.132 9.53665V9.60685H14.4782H12.8245L12.8445 9.44936C12.9776 8.39842 14.0536 7.72867 15.0334 8.08693ZM25.611 8.49261C27.101 8.97211 27.5311 11.0451 26.3795 12.1967C25.1131 13.4632 23.0617 12.4738 23.0622 10.5967C23.0626 9.14372 24.3449 8.08516 25.611 8.49261ZM30.7405 17.708C29.4979 17.845 28.2345 18.3659 27.2608 19.143C26.9183 19.4163 26.1806 20.1788 26.0761 20.3675C26.0741 20.3713 26.0053 20.3488 25.9232 20.3177C25.3889 20.1146 24.7888 20.1977 24.2756 20.5458C24.0029 20.7307 23.826 20.8113 23.3096 20.9861C22.5641 21.2383 22.4279 21.312 22.0679 21.6574L21.8694 21.8477L21.5879 21.879C21.0916 21.9342 20.7452 22.0969 20.316 22.4763C19.9822 22.7714 19.6603 22.9251 19.3744 22.9259C18.9223 22.9272 18.4122 23.1206 17.9225 23.4763C16.7002 24.3641 16.0565 24.503 15.7696 23.9407C15.585 23.5788 15.7664 23.2381 16.4285 22.7027C17.0516 22.1989 17.2565 21.7848 17.1079 21.3299C16.9686 20.9035 16.7156 20.7346 15.8997 20.5233C15.5725 20.4386 15.5007 20.4073 15.2424 20.237C14.8306 19.9654 14.7324 19.9855 14.6046 20.3673C14.3727 21.0596 14.9059 21.8142 15.6844 21.8956C15.8965 21.9178 15.8974 21.9216 15.7235 22.0556C13.982 23.3979 14.6431 25.4729 16.738 25.2398L16.9391 25.2175L16.9568 25.3839C16.994 25.7328 17.0376 25.9393 17.1242 26.1756L17.2138 26.4202L17.1303 26.4879C16.9826 26.6077 16.7519 26.6751 16.4894 26.6751C16.1696 26.6751 16.0485 26.8013 15.9114 27.2778C15.8176 27.6036 15.727 27.6597 15.5449 27.5047C15.3798 27.3641 15.3148 27.3351 15.1658 27.3351C14.9408 27.3351 14.461 27.6583 14.3885 27.8588C14.3623 27.9313 14.3183 27.9757 14.2358 28.0129C14.0082 28.1155 13.8761 28.3095 13.8396 28.5949C13.828 28.6857 13.7856 28.8163 13.7454 28.8853C13.5404 29.2364 14.1144 29.7153 14.501 29.5157C14.5768 29.4765 14.614 29.4764 14.8121 29.5149C15.3536 29.62 15.6066 29.5405 15.8539 29.1877C16.0484 28.9101 16.0569 28.9053 16.2675 28.9524C16.5344 29.0121 16.9306 28.8417 17.3522 28.4858C17.5841 28.2899 17.6771 28.2729 18.1418 28.3414C18.6183 28.4115 18.8442 28.3897 19.1164 28.2471C19.232 28.1866 19.4255 28.0862 19.5464 28.0241C19.8352 27.8757 19.8923 27.8182 20.0522 27.5151C20.1261 27.3748 20.2286 27.1842 20.2798 27.0915L20.373 26.9229L20.5847 26.905C20.7012 26.8951 20.9045 26.8647 21.0365 26.8373C21.301 26.7825 21.5516 26.7904 22.0414 26.869C22.3492 26.9184 22.8483 26.9276 23.0543 26.8877C23.1749 26.8644 23.1897 26.8695 23.3077 26.9741L23.433 27.0853L23.2733 27.1042C23.1855 27.1147 23.0842 27.1425 23.0481 27.1661C23.001 27.197 22.9282 27.2047 22.7894 27.1936C21.8284 27.1166 21.4958 27.3889 21.8329 27.9767C22.1425 28.5167 22.1937 28.5649 22.4572 28.5649C22.5656 28.5649 22.5827 28.5768 22.6703 28.7133C23.0534 29.3103 23.3996 29.3248 24.7246 28.7991C24.9357 28.7153 25.1025 28.6716 25.2945 28.6499C25.6186 28.6132 25.746 28.544 25.8498 28.3483L25.9209 28.2144L26.0926 28.4422C27.2995 30.0424 29.388 31.1387 31.1754 31.1101C31.4435 31.1058 31.4428 31.1056 31.0705 31.083C29.0898 30.9628 27.2747 29.9713 26.0724 28.3529L25.9172 28.144L25.8234 28.3104C25.7001 28.5288 25.6119 28.5778 25.2658 28.6204C25.072 28.6442 24.9013 28.6882 24.7334 28.7576C23.4517 29.2874 23.0598 29.2722 22.6943 28.6782C22.6094 28.5403 22.6009 28.535 22.4662 28.5348C22.1191 28.5346 21.5772 27.6901 21.7582 27.4316C21.8604 27.2856 22.3575 27.1856 22.7832 27.2253C22.9308 27.2391 22.9969 27.2305 23.0981 27.1845C23.1686 27.1526 23.2667 27.1259 23.3162 27.1253C23.4907 27.1231 23.4964 27.0828 23.341 26.9494C23.2511 26.8722 23.1792 26.8322 23.1513 26.8438C23.0361 26.8915 22.3473 26.8892 22.0414 26.84C21.503 26.7535 21.3042 26.7505 20.9178 26.8236C20.726 26.8599 20.5216 26.8854 20.4635 26.8804C20.348 26.8704 20.3481 26.8704 20.04 27.4551C19.8605 27.7957 19.821 27.8394 19.5947 27.9475C19.4781 28.0031 19.3087 28.096 19.2183 28.1538C18.9055 28.3539 18.6506 28.3915 18.1568 28.3104C17.6667 28.2299 17.5717 28.2512 17.2572 28.5117C16.981 28.7405 16.5768 28.9426 16.4195 28.9305C16.3521 28.9252 16.2298 28.9185 16.1477 28.9155L15.9985 28.9099L15.8399 29.1401C15.5835 29.5125 15.3505 29.5908 14.8189 29.483C14.594 29.4375 14.5687 29.4375 14.473 29.4831C14.127 29.6481 13.5996 29.2311 13.7698 28.9271C13.8121 28.8517 13.8558 28.7224 13.8669 28.6399C13.9078 28.3356 14.0355 28.1479 14.2917 28.0154C14.3409 27.99 14.4006 27.9197 14.4304 27.8521C14.4689 27.7648 14.5365 27.6977 14.6856 27.5985C15.1313 27.3022 15.2196 27.2933 15.4929 27.5171C15.7403 27.7197 15.8293 27.677 15.9405 27.3027C16.0852 26.8153 16.1779 26.7246 16.5521 26.7046C17.0981 26.6755 17.2989 26.5183 17.1752 26.2169C17.0888 26.0065 17.0188 25.6936 16.987 25.3756C16.9709 25.2136 16.9575 25.1744 16.9228 25.1877C16.4301 25.3768 15.5638 25.1523 15.1711 24.7339C14.4321 23.9464 14.6955 22.8619 15.8311 22.0163C15.9609 21.9196 15.9495 21.9087 15.6657 21.8594C14.9029 21.727 14.43 21.0645 14.6294 20.4078C14.7432 20.0333 14.8199 20.0055 15.147 20.2202C15.268 20.2995 15.4015 20.3859 15.4437 20.412C15.4859 20.4382 15.7086 20.5088 15.9387 20.569C17.3277 20.9325 17.5305 21.7689 16.4418 22.6437C15.4227 23.4624 15.4058 24.3538 16.4104 24.2981C16.7706 24.2782 17.0398 24.1345 18.1605 23.3641C18.4741 23.1485 18.7916 23.0289 19.1734 22.9824C19.7922 22.9071 19.933 22.8512 20.3105 22.531C20.8094 22.1079 21.105 21.9654 21.6032 21.9082L21.8999 21.8741L22.1463 21.6409C22.4545 21.3491 22.6663 21.2366 23.3178 21.0184C23.8813 20.8297 24.0056 20.7734 24.3367 20.5573C24.8645 20.2127 25.3906 20.1459 25.9131 20.357L26.0874 20.4273L26.1567 20.3301C28.6091 16.8891 34.087 16.8585 36.7447 20.2709L36.9577 20.5444L37.1936 20.3865C37.7293 20.0279 38.4083 20.1825 39.0252 20.8033L39.2446 21.0242L39.5446 21.0947C40.0888 21.2226 40.4085 21.3715 40.8569 21.7058C41.0956 21.8838 41.1339 21.9013 41.453 21.9788C41.8835 22.0833 42.0646 22.1663 42.5201 22.4678C42.9359 22.7431 43.0948 22.8109 43.4799 22.8773C44.0026 22.9675 44.4624 23.1771 45.154 23.6406C46.1234 24.29 46.6817 24.4205 47.0075 24.0738C47.2668 23.7977 47.116 23.4672 46.3915 22.7236C45.3738 21.679 45.6612 20.8695 47.1511 20.5839C47.4269 20.531 47.7488 20.3357 47.7488 20.2211C47.7488 20.06 47.9882 20.1791 48.0535 20.3727C48.2957 21.0904 47.8665 21.8304 47.1114 21.9971C46.8978 22.0442 46.8835 22.0058 47.2489 22.3654C48.1726 23.2744 48.3068 24.1373 47.6297 24.8144C47.3066 25.1375 46.8606 25.2919 46.3539 25.2562L46.1135 25.2392L46.1137 25.6347C46.1139 25.9598 46.1011 26.0772 46.0418 26.2944C45.9476 26.6387 45.9554 26.6479 46.3669 26.6764C46.8082 26.707 46.8457 26.744 47.0252 27.3257C47.077 27.4938 47.141 27.6529 47.1673 27.6792C47.2204 27.7323 47.2226 27.7312 47.4245 27.555C47.6519 27.3567 48.3664 27.6726 48.4507 28.0088C48.4626 28.0561 48.513 28.1064 48.5857 28.1435C48.8246 28.2653 48.9481 28.4567 48.9485 28.7057C48.9486 28.7584 48.9847 28.8988 49.0288 29.0177C49.1436 29.3273 48.557 29.7563 48.272 29.5711C48.2309 29.5444 48.0753 29.5272 47.807 29.5196C47.2758 29.5045 47.2209 29.4773 46.9146 29.0782L46.8596 29.0065L46.7011 29.0592C46.4193 29.1528 46.2777 29.1194 45.9477 28.8812C45.3478 28.4483 44.9754 28.3411 44.4191 28.441C44.2079 28.479 44.1439 28.4971 44.2541 28.4877C44.3531 28.4793 44.5057 28.4584 44.5932 28.4412C44.9458 28.3721 45.3872 28.5289 45.9185 28.912C46.2688 29.1645 46.4615 29.1976 46.7917 29.0617C46.8261 29.0476 46.8746 29.0885 46.9642 29.2072C47.1745 29.4858 47.2979 29.5379 47.777 29.5504C48.0668 29.558 48.1992 29.5734 48.2477 29.6052C48.309 29.6453 48.3469 29.6395 48.6694 29.5402C49.1445 29.3939 49.203 29.3166 49.0664 29.0155C49.0329 28.9417 48.993 28.7827 48.9777 28.6623C48.9408 28.3715 48.781 28.1493 48.5707 28.0965C48.5304 28.0864 48.496 28.0445 48.4792 27.9852C48.453 27.892 48.0659 27.5695 47.8211 27.4368C47.689 27.3653 47.5447 27.4009 47.3801 27.5458C47.1818 27.7203 47.1901 27.7291 46.9989 27.1401C46.8621 26.7187 46.77 26.647 46.3648 26.6458C46.1916 26.6453 46.12 26.6323 46.0717 26.5926L46.0078 26.5402L46.074 26.3152C46.1272 26.1343 46.1406 26.0109 46.1421 25.6852L46.1439 25.2803L46.5039 25.2802C48.1836 25.2798 48.615 23.6463 47.2807 22.3381L47.0029 22.0656L47.2384 21.9976C47.8799 21.8122 48.1788 21.3632 48.1261 20.6639C48.0873 20.15 47.8806 19.9525 47.6845 20.2422C47.5808 20.3953 47.4115 20.4944 47.1687 20.544C45.6071 20.8629 45.3134 21.6754 46.3681 22.759C47.1658 23.5785 47.2864 23.9363 46.8383 24.1533C46.4688 24.3321 46.0625 24.198 45.1705 23.6024C44.4888 23.1473 44.025 22.9402 43.4836 22.8492C43.1404 22.7914 42.8968 22.6807 42.449 22.3788C42.0944 22.1398 41.7652 21.9983 41.4169 21.9352C41.1847 21.893 41.1687 21.885 40.8495 21.6502C40.439 21.3481 40.0813 21.1865 39.5454 21.0609C39.2779 20.9981 39.2719 20.9948 39.0497 20.7782C38.3693 20.1153 37.6604 19.974 37.1109 20.3919C36.971 20.4984 36.9685 20.4974 36.7968 20.2708C35.4396 18.4787 33.0237 17.4564 30.7405 17.708ZM14.8254 20.391C14.6193 20.9306 15.12 21.5253 15.8268 21.5804C16.3889 21.6243 16.4051 21.7396 15.9083 22.1588C15.1404 22.8067 14.9771 23.0623 14.9771 23.6154C14.9771 24.587 15.7932 25.1397 16.8879 24.9094C17.2056 24.8425 17.2117 24.8469 17.2124 25.1438C17.2133 25.4785 17.2604 25.7486 17.376 26.0813C17.4535 26.3043 17.4725 26.3957 17.4524 26.4487C17.3933 26.6041 16.9387 26.8541 16.7103 26.8569C16.3218 26.8615 16.2572 26.9139 16.1155 27.3395C16.0182 27.6316 15.9366 27.7292 15.6428 27.905C15.5187 27.9793 15.3943 28.0783 15.3663 28.1252C15.2579 28.3068 15.136 28.4156 15.0037 28.449C14.8379 28.4907 14.6961 28.7411 14.6842 29.0136L14.6771 29.1772L14.8871 29.2142C15.3639 29.2982 15.4902 29.2483 15.7264 28.8822C15.9042 28.6065 15.9542 28.5743 16.1545 28.6064C16.5092 28.663 16.4956 28.6646 16.7469 28.5405C16.8789 28.4754 17.0729 28.3468 17.178 28.2549C17.429 28.0355 17.5797 27.9991 17.9918 28.0585C18.1485 28.0811 18.3982 28.099 18.5467 28.0983L18.8167 28.0969L19.2066 27.8937C19.674 27.6502 19.6676 27.6556 19.8096 27.3851C19.8718 27.2669 19.9606 27.1101 20.0071 27.0367C20.1043 26.8833 20.1136 26.7934 20.0391 26.7293C19.9337 26.6388 19.9184 26.6455 19.7946 26.8355C19.4016 27.4387 19.0193 27.6208 18.0518 27.6654C17.2473 27.7026 16.906 27.816 16.512 28.1769C16.1524 28.5065 16.1377 28.3096 16.4957 27.959C16.8146 27.6468 17.1873 27.517 17.9436 27.4547C19.1617 27.3544 19.6277 26.9443 19.8039 25.8177C19.8868 25.2874 19.9182 25.1753 19.984 25.1753C20.0579 25.1753 20.0629 25.2183 20.0258 25.5347C19.9185 26.4495 20.1614 26.7213 20.9513 26.5701C21.2533 26.5124 21.5556 26.513 21.8512 26.5722C22.7542 26.7527 23.0284 26.6931 22.9673 26.3295C22.9031 25.9478 23.0351 25.8901 23.1534 26.248C23.2341 26.4922 23.4939 26.7684 23.8204 26.957C24.5715 27.391 24.683 27.9425 24.0662 28.1731C23.6035 28.346 23.4622 28.2939 23.1631 27.8402C22.896 27.4352 22.8644 27.4174 22.4397 27.4339C21.9069 27.4547 21.8768 27.4946 22.1004 27.8844C22.3013 28.2346 22.3094 28.2422 22.4962 28.2487C22.703 28.2559 22.7053 28.2574 22.8726 28.5114C23.2025 29.0122 23.6041 29.0111 24.6966 28.5064C24.8542 28.4336 25.015 28.3836 25.1356 28.3698C25.4441 28.3345 25.4894 28.2949 25.7551 27.83C25.9402 27.5063 25.9394 27.3225 25.7519 27.0439C25.6954 26.9599 25.6052 26.7852 25.5517 26.6556C25.42 26.3373 25.3008 26.2497 25.0688 26.3007C24.9467 26.3275 24.9501 26.3403 25.236 26.9169C25.3763 27.1996 25.4907 27.46 25.4904 27.4955C25.4885 27.6811 25.1547 28.1787 25.0813 28.1053C25.0752 28.0991 25.0962 28.0077 25.1281 27.9021C25.252 27.4908 25.2582 27.5229 24.9415 26.9379C24.5194 26.158 24.5188 26.1812 24.9643 26.0874C25.3196 26.0127 25.5303 25.732 25.6687 25.1491C25.7335 24.8763 25.7412 24.8595 25.789 24.8891C25.903 24.9595 25.799 25.6281 25.6254 25.9416C25.4693 26.2234 25.6326 26.3022 26.064 26.1533C26.1886 26.1104 26.3299 26.0753 26.3782 26.0754C26.4264 26.0755 26.5705 26.0597 26.6982 26.0402C26.9815 25.9971 26.9871 26.0018 26.8714 26.1842C26.8205 26.2645 26.759 26.3966 26.7349 26.4778C26.7019 26.589 26.648 26.6669 26.5172 26.7928C26.221 27.0778 26.1613 27.2989 26.391 27.2601C26.5415 27.2346 26.5493 27.2835 26.4239 27.4657C26.3203 27.6164 26.3131 27.6541 26.3431 27.8948C26.389 28.2625 26.6803 28.3264 27.2758 28.0993C27.5724 27.9862 27.581 27.9848 28.0283 27.9807C28.5307 27.976 28.5817 27.9598 28.88 27.7105C29.0421 27.5752 29.1495 27.6019 29.3606 27.8303C29.5514 28.0367 29.8553 28.1834 30.2035 28.2375C30.6243 28.3028 30.6746 28.2074 30.3175 28.0216C29.9979 27.8553 29.8061 27.6681 29.736 27.4539C29.6654 27.2384 29.5608 27.0301 29.415 26.8148C29.2738 26.6061 29.2829 26.5815 29.4624 26.6867C29.6157 26.7765 29.7573 26.9392 29.9104 27.2015C30.1596 27.6283 30.7562 27.9587 30.9649 27.7855C31.033 27.729 31.0245 27.7175 30.8467 27.6245C30.6356 27.5142 30.4653 27.3293 30.2485 26.9751C30.1526 26.8184 30.0075 26.6216 29.926 26.5378C29.6964 26.3018 29.3972 25.3774 29.2854 24.5588C29.1807 23.7922 29.0727 23.5716 28.3793 22.7084C27.6359 21.7828 26.2754 20.6519 25.703 20.4836C25.3016 20.3657 24.8993 20.4556 24.4411 20.7657C24.1805 20.9421 24.01 21.0181 23.4388 21.2123C22.807 21.4271 22.7076 21.4813 22.3801 21.7898C22.0663 22.0853 22.0279 22.1037 21.6814 22.1246C21.2074 22.153 20.9547 22.2708 20.5115 22.67C20.1216 23.0212 19.9321 23.1021 19.326 23.1766C18.7599 23.2461 18.535 23.3496 17.9204 23.824C16.8407 24.6572 15.9333 24.7574 15.5953 24.0806C15.3604 23.6103 15.5612 23.1564 16.2519 22.596C17.2501 21.7862 17.2265 21.1078 16.1919 20.8715C15.4537 20.7028 15.4349 20.6947 15.0803 20.392C14.8847 20.2251 14.8888 20.2251 14.8254 20.391ZM37.3825 20.4295C37.3317 20.4577 37.1495 20.5968 36.9775 20.7388C36.8056 20.8806 36.3544 21.2231 35.975 21.4997C35.5955 21.7763 35.2108 22.0648 35.1201 22.1408C33.9585 23.114 33.7928 23.4116 33.2631 25.4768C32.9348 26.7574 32.6713 27.2472 32.0679 27.699C31.8893 27.8327 31.8709 27.8916 31.9989 27.9197C32.2989 27.9856 32.5937 27.819 32.8744 27.4251C33.1226 27.0767 33.3754 26.7886 33.4126 26.8116C33.4635 26.843 33.4411 26.9049 33.3034 27.1132C33.2282 27.227 33.121 27.418 33.0653 27.5378C32.9855 27.7091 32.9116 27.8061 32.7182 27.9934C32.4518 28.2514 32.4276 28.325 32.6089 28.325C32.8851 28.325 33.2357 28.1348 33.6064 27.7839C33.861 27.5429 33.8455 27.5476 33.9982 27.6649C34.3341 27.9228 34.328 27.9203 34.5923 27.9055C35.042 27.8802 35.1149 27.8913 35.5552 28.0518C36.21 28.2907 36.4468 28.1813 36.3948 27.6642L36.3738 27.4551H36.5108C36.751 27.4551 36.7531 27.3255 36.5185 26.9843C36.4598 26.8991 36.3711 26.7441 36.3213 26.6398C36.2714 26.5355 36.1495 26.3557 36.0502 26.2402C35.6529 25.7778 35.6651 25.6139 36.0739 25.9238C36.39 26.1635 36.5209 26.2121 36.9314 26.2422C37.3911 26.276 37.4387 26.2395 37.2983 25.9617C37.1062 25.5815 36.9903 24.9861 37.04 24.6347C37.0931 24.2586 37.2138 24.3296 37.2533 24.7603C37.3205 25.4926 37.4892 25.8605 37.8756 26.1174C38.2627 26.3748 38.2651 26.4425 37.906 26.9767C37.6303 27.3867 37.5811 27.506 37.5773 27.7735L37.5748 27.95L37.4961 27.785C37.3483 27.4756 37.3723 27.3599 37.6818 26.8903C37.8267 26.6705 37.9406 26.4863 37.935 26.481C37.8155 26.3691 37.5673 26.3559 37.4966 26.4577C37.0584 27.0886 36.9414 27.4709 37.0673 27.86C37.2434 28.4036 37.2431 28.4034 37.4849 28.3926C37.6577 28.3849 37.7317 28.4149 37.881 28.5535C37.9331 28.6018 38.1186 28.6711 38.466 28.7721C38.7458 28.8535 39.0127 28.9346 39.0591 28.9524C39.3988 29.0829 39.8277 28.8065 39.8293 28.4561C39.8297 28.372 39.8789 28.3349 40.0246 28.3089C40.1781 28.2814 40.2192 28.2436 40.384 27.9792C40.6002 27.6324 40.5662 27.5954 40.0449 27.61C39.6178 27.6219 39.6148 27.6237 39.4515 27.9676C39.2826 28.3233 39.1889 28.3575 38.764 28.2188C38.4109 28.1036 38.2698 27.9737 38.2697 27.764C38.2696 27.667 38.7965 27.1253 38.8914 27.1248C38.9801 27.1243 39.2405 26.9586 39.3597 26.8267C39.4633 26.7119 39.4975 26.6517 39.5858 26.4277C39.6093 26.3681 39.6393 26.3452 39.694 26.3452C39.7857 26.3452 39.8001 26.5048 39.7246 26.6855C39.6998 26.7447 39.6796 26.8091 39.6796 26.8285C39.6796 26.8801 40.2126 26.8438 40.6545 26.762C40.9597 26.7056 41.1263 26.6951 41.7494 26.6928C42.5502 26.6899 42.5813 26.6841 42.7775 26.5004C42.9439 26.3448 42.9908 25.9665 42.9045 25.4765C42.8597 25.2218 42.8707 25.1585 42.9542 25.1906C43.0168 25.2146 43.0846 25.4477 43.2023 26.0438C43.3651 26.8689 43.6081 27.2727 44.0829 27.5073L44.3112 27.62L44.8826 27.6223C45.6619 27.6253 45.9599 27.7282 46.3764 28.1383C46.6404 28.3982 46.6041 28.4963 46.3244 28.2791C45.7616 27.8421 45.4637 27.7621 44.6412 27.8271C44.0016 27.8777 43.4978 27.5631 43.1541 26.8984C42.9896 26.5803 42.8953 26.6498 42.9632 27.0392C43.0601 27.5948 43.1561 27.7525 43.5412 27.9886C43.9574 28.2437 43.9963 28.2543 44.3415 28.2069C44.9032 28.1298 45.356 28.2556 45.8427 28.624C46.1889 28.886 46.3617 28.9323 46.5776 28.8206C46.7756 28.7182 46.8378 28.7415 47.0869 29.011C47.3566 29.3028 47.6118 29.387 47.9513 29.296C48.1103 29.2533 47.9335 28.6397 47.7525 28.606C47.6712 28.5908 47.6022 28.5404 47.4788 28.4061C47.3881 28.3073 47.203 28.117 47.0676 27.9832L46.8213 27.74L46.7465 27.4338C46.621 26.9197 46.616 26.9144 46.2306 26.8819C45.7158 26.8384 45.5775 26.6589 45.743 26.2488C45.8345 26.022 45.8547 25.5477 45.7851 25.2613C45.7134 24.9663 45.7391 24.9401 46.0341 25.0072C47.7624 25.4003 48.3504 23.7634 46.9658 22.4132C46.4743 21.9339 46.4618 21.8618 46.8613 21.8122C47.5474 21.727 47.9053 21.3031 47.8261 20.6693C47.7956 20.4252 47.7737 20.4077 47.6429 20.5225C47.5057 20.643 47.4413 20.6692 47.1107 20.739C45.7518 21.0258 45.5929 21.6133 46.5978 22.6351C47.3313 23.3809 47.4803 23.8482 47.0982 24.2032C46.6738 24.5975 46.1176 24.4924 45.0932 23.8242C44.3035 23.3091 44.0483 23.1911 43.3708 23.0277C42.8386 22.8993 42.7602 22.8651 42.3562 22.5859C41.9214 22.2853 41.8268 22.2418 41.4227 22.1562C41.0527 22.0779 41.0313 22.0678 40.7111 21.8221C40.3581 21.5513 39.9877 21.399 39.2296 21.2131C39.1211 21.1865 39.0535 21.1372 38.8847 20.9616C38.416 20.4742 37.736 20.2333 37.3825 20.4295ZM37.6827 21.8627C37.7669 21.947 37.7341 22.0052 37.4562 22.2649C37.1518 22.5493 36.9581 22.7851 36.8554 22.9967C36.7966 23.1176 36.7838 23.129 36.7648 23.0776C36.6388 22.737 37.4643 21.6444 37.6827 21.8627ZM25.7897 22.4381C25.9464 22.6276 26.0199 23.0632 25.9522 23.4017C25.9219 23.5534 25.8992 23.5143 25.813 23.1614C25.7325 22.8322 25.7166 22.7903 25.5796 22.5484C25.449 22.3177 25.6171 22.2294 25.7897 22.4381ZM28.4599 24.7178C28.8348 25.2032 28.9407 25.4018 28.9407 25.6198C28.9407 25.9655 28.7937 26.082 28.7544 25.7674C28.73 25.5723 28.6998 25.5043 28.5715 25.3553C28.3578 25.1071 28.2589 25.0934 28.081 25.2871L27.9508 25.4289V25.3167C27.9508 25.2173 28.1326 24.7964 28.2289 24.6728C28.279 24.6085 28.3925 24.6306 28.4599 24.7178ZM34.9383 24.7853C34.9666 24.7853 35.1485 25.0559 35.2379 25.231C35.3557 25.462 35.2264 25.5713 35.073 25.3703C34.8864 25.1256 34.3476 25.5113 34.2216 25.9796C34.1713 26.1667 34.0832 26.1453 34.0899 25.9476C34.0985 25.6955 34.1793 25.5206 34.3954 25.2862C34.5053 25.167 34.6487 24.9986 34.7143 24.9118C34.7864 24.8163 34.8495 24.7602 34.8742 24.7697C34.8966 24.7783 34.9255 24.7853 34.9383 24.7853ZM41.4119 26.905C41.4326 26.9133 41.4663 26.9133 41.4869 26.905C41.5076 26.8967 41.4907 26.8899 41.4494 26.8899C41.4082 26.8899 41.3913 26.8967 41.4119 26.905ZM42.5143 26.9172L42.3643 26.9398L42.5521 26.933L42.74 26.9262L42.7713 27.0482C42.9351 27.6846 42.9732 27.7687 43.2043 28.0025C43.3762 28.1764 43.8257 28.4466 43.9692 28.4624L44.0742 28.4739L43.9811 28.4491C43.4973 28.3203 42.992 27.8042 42.8756 27.3201C42.7568 26.8258 42.8 26.874 42.5143 26.9172ZM40.7145 26.9926C40.5018 27.0351 40.1828 27.0722 39.9346 27.0833C39.5485 27.1006 39.3334 27.1489 39.3901 27.2055C39.3987 27.2142 39.4366 27.1996 39.4744 27.1731C39.5239 27.1384 39.6139 27.1248 39.7988 27.1242C40.0912 27.1231 40.3693 27.091 40.8195 27.0062C40.9927 26.9736 41.1884 26.942 41.2544 26.9361C41.3599 26.9265 41.3563 26.9249 41.2244 26.9229C41.1419 26.9217 40.9125 26.953 40.7145 26.9926ZM41.5719 26.926C41.5788 26.932 41.7599 26.9435 41.9744 26.9515C42.2048 26.9601 42.3091 26.9566 42.2293 26.9428C42.094 26.9195 41.5484 26.9055 41.5719 26.926ZM28.3046 27.1867C28.316 27.3614 28.249 27.4283 28.0423 27.4481C27.7642 27.4749 27.7435 27.3908 27.9718 27.1625C28.1596 26.9747 28.2914 26.9843 28.3046 27.1867ZM35.0368 27.1462C35.2241 27.3157 35.2063 27.4551 34.9975 27.4551C34.833 27.4551 34.7817 27.4053 34.7481 27.2129C34.7195 27.0494 34.8871 27.0107 35.0368 27.1462ZM39.3196 27.2419C39.3196 27.2601 39.3523 27.2751 39.3923 27.2751C39.4323 27.2751 39.5051 27.3088 39.5541 27.3501C39.6384 27.421 39.6633 27.4251 40.0139 27.4264C40.8253 27.4292 40.9497 27.5624 40.621 28.0764C40.4019 28.419 40.3201 28.505 40.2135 28.505C40.1392 28.505 40.1194 28.5261 40.0527 28.6774C39.804 29.2409 39.5136 29.3136 38.6005 29.0412C37.9384 28.8437 37.914 28.8343 37.7685 28.7184C37.688 28.6544 37.6402 28.6417 37.4784 28.6409C37.2539 28.6398 37.167 28.5813 37.063 28.3613C36.9881 28.2029 36.9936 28.2006 36.7868 28.475C35.6465 29.9878 33.8059 30.9662 31.8804 31.083C31.5417 31.1036 31.5292 31.1062 31.7514 31.1102C33.4974 31.1419 35.5999 30.0746 36.7673 28.5641C36.9759 28.2943 37.0699 28.2622 37.0699 28.461C37.0699 28.5654 37.252 28.668 37.445 28.6723C37.6135 28.6761 37.6587 28.6904 37.7965 28.7838C37.8836 28.8428 38.0155 28.9068 38.0898 28.926C38.164 28.9452 38.4394 29.0271 38.7018 29.1079C39.4982 29.3532 39.8421 29.251 40.0875 28.6962C40.1504 28.5538 40.1691 28.535 40.2471 28.535C40.4042 28.535 40.8195 27.9395 40.8195 27.7143C40.8195 27.462 40.6651 27.4 40.0289 27.3969C39.6946 27.3952 39.6679 27.3906 39.5841 27.3201C39.5351 27.2788 39.4769 27.2451 39.4548 27.2451C39.4326 27.2451 39.3932 27.2369 39.3671 27.2269C39.341 27.2169 39.3196 27.2236 39.3196 27.2419ZM23.4212 27.4173C23.2017 27.4322 23.1757 27.4648 23.2957 27.5744C23.3492 27.6233 23.4309 27.748 23.4774 27.8516C23.5239 27.9552 23.5828 28.0573 23.6082 28.0784C23.7072 28.1605 24.1648 27.9855 24.1306 27.8786C24.1068 27.8042 24.0153 27.5383 23.9873 27.4626C23.9609 27.3908 23.893 27.3854 23.4212 27.4173ZM38.6635 27.5887C38.5367 27.8585 38.609 27.9987 38.9076 28.0613C39.1527 28.1127 39.2044 28.08 39.2876 27.8215C39.3974 27.4798 39.3916 27.4716 39.0309 27.4615L38.7272 27.453L38.6635 27.5887ZM14.8871 27.7807C14.5605 28.0159 14.5364 28.2235 14.8291 28.2818C15.0728 28.3303 15.4454 27.8432 15.2905 27.6784C15.1943 27.576 15.1589 27.585 14.8871 27.7807ZM47.4817 27.707C47.4036 27.7901 47.4211 27.8427 47.6171 28.1156C47.7904 28.3568 48.0508 28.3613 48.1408 28.1247C48.2218 27.9115 47.6375 27.5411 47.4817 27.707ZM14.2457 28.3439C14.1552 28.4072 14.0922 28.5607 14.0922 28.7174C14.0922 28.7888 14.0649 28.8903 14.028 28.9559C13.9427 29.1076 13.9674 29.1531 14.1663 29.2109C14.3984 29.2784 14.4465 29.2064 14.5938 28.5704C14.6304 28.4122 14.3804 28.2495 14.2457 28.3439ZM48.2532 28.4159C48.1491 28.52 48.1489 28.5153 48.2727 28.9699C48.3739 29.3414 48.3543 29.3245 48.5964 29.2506C48.8152 29.1838 48.8294 29.1614 48.7502 29.0082C48.7236 28.9567 48.6901 28.819 48.6757 28.7022C48.6338 28.3602 48.4401 28.229 48.2532 28.4159ZM8.36273 35.9867V38.344H8.66243H8.96216L8.9699 36.7049L8.97767 35.0659L10.6228 36.7874C11.5276 37.7343 12.2802 38.5135 12.2951 38.5189C12.3113 38.5249 12.3223 37.582 12.3223 36.2017V33.8744H12.0376H11.7529L11.7452 35.4987L11.7374 37.123L10.0776 35.3862C9.16479 34.431 8.40548 33.6449 8.3903 33.6395C8.37368 33.6334 8.36273 34.5657 8.36273 35.9867ZM49.7286 35.982V38.344H50.0133H50.298L50.3058 36.6997L50.3135 35.0555L51.9625 36.7897C52.8694 37.7436 53.622 38.524 53.6348 38.524C53.6477 38.524 53.6582 37.4778 53.6582 36.1992V33.8744H53.3585H53.0588L53.051 35.4853L53.0433 37.0962L51.5765 35.5528C50.7698 34.7039 50.024 33.9218 49.9192 33.8147L49.7286 33.62V35.982ZM25.4267 33.7698C24.1572 34.0226 23.3226 35.3458 23.6295 36.6191C24.2343 39.1292 27.8381 38.935 27.9436 36.3867L27.9582 36.0342H27.0546H26.151V36.3192V36.6041H26.732H27.3131L27.287 36.7439C27.0357 38.0888 25.153 38.2566 24.4137 37C23.3586 35.2065 25.6559 33.342 27.1305 34.795C27.3636 35.0247 27.3271 35.0252 27.5607 34.7894L27.7539 34.5945L27.5898 34.4258C27.0473 33.8677 26.2099 33.6138 25.4267 33.7698ZM3.59321 36.0939V38.344H4.82309H6.05296V38.074V37.804H5.12306H4.19315V36.9791V36.1542H5.07806H5.96297V35.8842V35.6142H5.07806H4.19315V34.9993V34.3844H5.12423H6.0553L6.04663 34.1219L6.03796 33.8594L4.81559 33.8516L3.59321 33.8438V36.0939ZM14.6921 36.0942V38.344H15.907H17.1219V38.074V37.804H16.1919H15.262V36.9791V36.1542H16.162H17.0619V35.8842V35.6142H16.162H15.262V34.9993V34.3844H16.1919H17.1219V34.1144V33.8444H15.907H14.6921V36.0942ZM19.3716 36.0907V38.344H19.6566H19.9416V37.3991V36.4542H20.0419C20.1398 36.4542 20.1592 36.4784 20.7994 37.3985L21.4564 38.3428L21.8089 38.3434C22.0027 38.3437 22.1614 38.3364 22.1614 38.3271C22.1614 38.3178 21.8516 37.8825 21.473 37.3597L20.7846 36.4092L20.9105 36.376C22.1233 36.0564 22.1541 34.3186 20.9539 33.9269C20.794 33.8747 20.6642 33.8637 20.0691 33.8516L19.3716 33.8375V36.0907ZM36.8299 36.0942V38.344L37.4523 38.3438C39.4229 38.3435 40.4102 37.4949 40.2982 35.898C40.201 34.5124 39.2714 33.8451 37.4373 33.8446L36.8299 33.8444V36.0942ZM42.3793 36.0907V38.344H42.6793H42.9793V37.3991V36.4542H43.078C43.1735 36.4542 43.1974 36.484 43.8344 37.3991L44.4922 38.344H44.8456C45.04 38.344 45.199 38.3374 45.199 38.3293C45.199 38.3213 44.8882 37.8861 44.5084 37.3622L43.8176 36.4096L43.9459 36.3766C45.1427 36.0682 45.1823 34.3123 44.001 33.9296C43.8297 33.874 43.712 33.8639 43.0918 33.8517L42.3793 33.8376V36.0907ZM46.9389 36.1092V38.374H47.2238H47.5088V36.1092V33.8444H47.2238H46.9389V36.1092ZM29.5465 33.9419C29.5699 33.979 29.9022 34.5436 30.2848 35.1965L30.9805 36.3837V37.3638V38.344H31.2804H31.5804V37.3688V36.3936L32.2889 35.1722C32.6785 34.5005 33.0041 33.9332 33.0124 33.9116C33.0244 33.8804 32.9575 33.8741 32.6865 33.8809L32.3455 33.8894L31.8168 34.812C31.4386 35.472 31.2798 35.7239 31.2591 35.6969C31.2431 35.6762 30.9972 35.2576 30.7126 34.7668L30.1951 33.8744H29.8494H29.5037L29.5465 33.9419ZM55.878 36.1092V38.344H56.1779H56.4779V37.4049V36.4659L56.5754 36.3714L56.6729 36.2769L57.5085 37.3105L58.3441 38.344H58.7309C58.9436 38.344 59.1176 38.3375 59.1176 38.3295C59.1176 38.3216 58.6598 37.7648 58.1002 37.0921L57.0827 35.8692L58.0927 34.8734L59.1027 33.8776L58.7077 33.876L58.3127 33.8744L57.3953 34.811L56.4779 35.7477V34.811V33.8744H56.1779H55.878V36.1092ZM20.6334 34.4319C21.5736 34.6457 21.4904 35.8096 20.5265 35.9271C20.4605 35.9352 20.3086 35.9492 20.189 35.9582L19.9716 35.9746V35.1795V34.3844H20.1981C20.3227 34.3844 20.5186 34.4057 20.6334 34.4319ZM38.3137 34.462C39.2643 34.6586 39.7643 35.2975 39.6967 36.2292C39.6251 37.2162 38.9868 37.7469 37.8123 37.796L37.4298 37.812V36.0937V34.3753L37.7589 34.3953C37.9399 34.4063 38.1895 34.4363 38.3137 34.462ZM43.6711 34.4319C44.088 34.5267 44.3144 34.7791 44.3139 35.1485C44.3131 35.6779 44.0137 35.9066 43.2567 35.9562L43.0093 35.9723V35.1784V34.3844H43.2358C43.3604 34.3844 43.5563 34.4057 43.6711 34.4319Z" fill="white"></path></svg> 