<?xml version="1.0" encoding="UTF-8"?> <svg xmlns="http://www.w3.org/2000/svg" width="58" height="42" viewBox="0 0 58 42" fill="none"><path fill-rule="evenodd" clip-rule="evenodd" d="M25.8017 0.0467864C25.3866 0.106538 24.5911 0.38443 24.5911 0.469723C24.5911 0.487902 25.0407 0.50282 25.5903 0.50282H26.5896V0.277507C26.5896 -0.0112003 26.4627 -0.0483245 25.8017 0.0467864ZM23.6604 1.778C23.6518 1.88872 23.652 2.00093 23.6609 2.02728C23.6733 2.06452 24.0024 2.07522 25.1332 2.07522H26.5896V1.82594V1.57665H25.1329H23.6761L23.6604 1.778ZM27.5642 2.82215C27.2195 2.88458 27.0506 2.93915 26.7732 3.0776L26.5533 3.1874H25.3027H24.052L23.968 3.01482C23.8531 2.77877 24.1109 2.61854 21.651 4.45449C18.1467 7.06984 16.8277 8.78234 16.8277 10.7168C16.8277 12.3358 17.515 13.4758 19.5372 15.2107C22.072 17.3855 22.131 17.4495 21.8798 17.7537L21.6997 17.9718L22.1171 17.991L22.5344 18.0101L22.7895 18.3279C22.9298 18.5027 23.117 18.7486 23.2053 18.8744L23.3661 19.1031H22.2551H21.1441L21.0871 19.3428L21.03 19.5825L22.348 19.5926L23.666 19.6027L23.7697 19.7792C23.8626 19.9374 24.1683 20.6106 24.1683 20.657C24.1683 20.6672 23.4568 20.6755 22.5872 20.6755H21.0061L21.0278 20.8855C21.0397 21.0009 21.0605 21.1131 21.0739 21.1348C21.0899 21.1606 21.6504 21.1741 22.7111 21.1741H24.324L24.3613 21.2722C24.3819 21.3261 24.4428 21.5462 24.4967 21.7612C24.5506 21.9761 24.6037 22.1823 24.6147 22.2192C24.6335 22.2823 24.5433 22.2863 23.0948 22.2863C22.2478 22.2863 21.5549 22.295 21.5549 22.3057C21.5549 22.3163 21.6197 22.4285 21.6989 22.5549L21.8429 22.7848H23.2924H24.7418L24.7844 22.9478C24.8078 23.0375 24.869 23.2662 24.9204 23.456C24.9718 23.6458 25.0138 23.8141 25.0138 23.8299C25.0138 23.8458 24.5195 23.8587 23.9153 23.8587C23.3111 23.8587 22.8225 23.8736 22.8296 23.8917C22.8366 23.9099 22.9547 24.0221 23.0919 24.141L23.3414 24.3572H24.2677H25.1939L25.3023 24.6353C25.3619 24.7882 25.4671 25.0377 25.536 25.1898L25.6614 25.4662L25.3856 25.4778L25.1099 25.4894L25.4798 25.6692C25.7962 25.823 25.8639 25.873 25.9473 26.014C26.0671 26.2164 26.2691 26.4252 26.3894 26.4708C26.5667 26.5381 26.5896 26.5186 26.5896 26.2999C26.5896 25.9349 26.1543 25.9681 30.9547 25.9673L35.1793 25.9665L35.4658 25.7276L35.7523 25.4886L31.4496 25.4694C29.0831 25.4589 27.1685 25.4363 27.1949 25.4192C27.3067 25.347 27.2231 25.316 26.9163 25.316H26.5896V24.9325V24.549H27.2593C27.928 24.549 27.9293 24.5488 28.0047 24.4531L28.0803 24.3572H32.4611H36.8419L37.0002 24.148C37.0873 24.0329 37.1586 23.9207 37.1586 23.8987C37.1586 23.8711 35.8095 23.8587 32.8323 23.8587C28.5235 23.8587 28.5061 23.8584 28.5304 23.782C28.5544 23.7067 28.5373 23.7053 27.5722 23.7053H26.5896V23.3218V22.9383H27.896C29.1607 22.9383 29.2039 22.9358 29.2504 22.8616C29.2979 22.7856 29.34 22.7848 33.5715 22.7848H37.8447L37.9436 22.5693C37.998 22.4507 38.0425 22.3386 38.0425 22.32C38.0425 22.3008 36.2442 22.2863 33.8712 22.2863C29.7118 22.2863 29.7 22.2861 29.7411 22.2096C29.7819 22.1335 29.7703 22.1329 28.1859 22.1329H26.5896V21.7494V21.3659H28.4684H30.3471L30.4101 21.27L30.473 21.1741H34.4456H38.4181L38.4439 20.9919C38.458 20.8918 38.4785 20.7795 38.4893 20.7426C38.5079 20.6791 38.3084 20.6755 34.6797 20.6755C30.8679 20.6755 30.8505 20.6752 30.8748 20.5988C30.899 20.5227 30.8817 20.5221 28.7252 20.5221H26.5511V20.7118V20.9015L26.3332 20.8267C25.4899 20.5372 25.1818 20.0392 24.8397 18.4128C24.5272 16.9277 24.2674 16.5149 23.1499 15.7288C21.5618 14.6116 21.2109 14.2146 21.096 13.405C20.958 12.4326 21.424 11.8556 22.7402 11.3691C24.0353 10.8904 24.3804 10.5509 24.8394 9.30441C25.2707 8.13332 25.6529 7.69819 26.3782 7.55284C26.6082 7.50678 26.6076 7.50835 26.5095 7.19897C26.4902 7.1378 26.4743 7.0731 26.4743 7.05516C26.4743 7.03721 26.7168 7.02252 27.0133 7.02252H27.5523L27.9943 7.40603L28.4362 7.78954H27.4937H26.5511V8.19223V8.59492L27.9828 8.59518L29.4144 8.59545L29.9082 8.98828L30.4019 9.38111L28.4765 9.39105L26.5511 9.40098V9.80332V10.2057H28.9877H31.4243L31.8876 10.5796L32.3508 10.9535L29.451 10.9633L26.5511 10.9732V11.3756V11.7781H29.956H33.3609L33.8203 12.1808L34.2796 12.5834H30.4154H26.5511V12.9861V13.3888H30.4713C34.3658 13.3888 34.3914 13.3883 34.3914 13.3121C34.3914 13.2418 34.417 13.2354 34.6989 13.2354C35.0676 13.2354 35.071 13.223 34.7737 12.961L34.5411 12.756L34.6195 12.315C35.1842 9.13824 34.5959 6.67072 32.8381 4.84364C31.4255 3.3754 29.2063 2.52477 27.5642 2.82215ZM26.5511 4.22373V4.76145L25.8148 4.75106L25.0785 4.74062L24.7554 4.28041C24.5777 4.02729 24.4155 3.78998 24.395 3.75308C24.3599 3.68988 24.4214 3.68597 25.4545 3.68597H26.5511V4.22373ZM26.5511 5.73775V6.21714L26.2917 6.2168L26.0323 6.21645L25.8127 5.86205C25.6919 5.66711 25.5562 5.45158 25.5111 5.38301L25.4291 5.25836H25.9901H26.5511V5.73775ZM26.5511 14.5585V14.9612H30.2059C33.8282 14.9612 33.8607 14.9605 33.8806 14.8845C33.9002 14.8097 33.9331 14.8078 35.203 14.8078C35.9192 14.8078 36.505 14.7949 36.5047 14.779C36.5044 14.7632 36.4165 14.6511 36.3093 14.5298L36.1145 14.3092H35.1028C34.1101 14.3092 34.0915 14.3078 34.1112 14.2325C34.1313 14.1562 34.1124 14.1558 30.3413 14.1558H26.5511V14.5585ZM26.5511 16.1693V16.572H29.855C33.1195 16.572 33.1593 16.571 33.2 16.4953C33.2404 16.4199 33.2805 16.4186 35.4497 16.4186C36.6644 16.4186 37.6582 16.4112 37.6582 16.4021C37.6582 16.3931 37.5956 16.2809 37.5192 16.1529L37.3802 15.92H35.422C33.4813 15.92 33.4641 15.9193 33.4882 15.8433C33.5125 15.767 33.4952 15.7666 30.0319 15.7666H26.5511V16.1693ZM26.5511 17.7417V18.1444H29.4515C32.3124 18.1444 32.3523 18.1433 32.3929 18.0677C32.4335 17.992 32.4734 17.991 35.3961 17.991C37.7496 17.991 38.3545 17.9811 38.3405 17.943C38.3307 17.9167 38.2929 17.8045 38.2564 17.6937L38.1901 17.4924H35.4375C33.2967 17.4924 32.6953 17.4821 32.7311 17.4464C32.7565 17.4211 32.7772 17.3865 32.7772 17.3697C32.7772 17.3528 31.3764 17.339 29.6642 17.339H26.5511V17.7417ZM26.5511 19.3524V19.7551H28.9903C31.39 19.7551 31.4301 19.7539 31.4705 19.6784C31.5112 19.6025 31.551 19.6017 35.048 19.6017H38.5842L38.5728 19.362L38.5614 19.1223L35.1793 19.1031C33.3191 19.0926 31.8188 19.07 31.8452 19.0529C31.9906 18.9591 31.7537 18.9497 29.2222 18.9497H26.5511V19.3524ZM26.5511 27.2911V27.5404H29.5485H32.5458L32.9882 27.3206C33.2315 27.1998 33.4306 27.0876 33.4306 27.0714C33.4306 27.0551 31.8827 27.0418 29.9909 27.0418H26.5511V27.2911ZM26.5511 28.8883V29.124L26.8426 29.0994C27.4708 29.0465 29.0218 28.7721 29.1643 28.6888C29.1986 28.6687 28.6784 28.6544 27.8867 28.6537L26.5511 28.6526V28.8883ZM18.3413 31.4096C16.9963 31.7563 17.2284 33.6602 18.6148 33.6531C20.1418 33.6454 20.2276 31.4982 18.705 31.3952C18.5709 31.3861 18.4071 31.3926 18.3413 31.4096ZM41.4246 34.4477C37.6895 35.018 37.151 40.9483 40.752 41.8538C43.3808 42.5149 45.4734 40.8198 45.4732 38.0294C45.4731 35.4716 43.89 34.0711 41.4246 34.4477ZM49.9951 34.4444C49.3858 34.5505 48.8039 34.9113 48.4347 35.4118L48.2719 35.6323L48.2289 35.4319C48.0892 34.782 47.4398 34.4166 46.6377 34.5367L46.4593 34.5634V38.2044V41.8454H47.4393H48.4193V39.7536C48.4193 37.2186 48.447 37.0225 48.8808 36.4758C49.3666 35.8639 50.3782 35.8414 50.7005 36.4354C50.8683 36.7446 50.879 36.9261 50.879 39.4555V41.8454H51.8206H52.7622L52.7628 39.6881C52.7634 37.3176 52.7676 37.2667 52.9969 36.8134C53.5008 35.8173 54.8414 35.7003 55.1525 36.6253C55.1866 36.7266 55.2027 37.4465 55.2123 39.3046L55.2255 41.8454H56.1845H57.1436L57.1435 39.3621C57.1435 36.2313 57.1049 35.818 56.7617 35.2782C55.9401 33.9856 53.4301 34.157 52.6402 35.5596C52.536 35.7445 52.5212 35.7449 52.4582 35.5654C52.1596 34.7136 51.1326 34.2462 49.9951 34.4444ZM2.06953 34.5183C0.805442 34.7864 0.143555 35.5383 0.143555 36.7063C0.143555 37.8559 0.576653 38.3179 2.13767 38.8335C3.08857 39.1475 3.33781 39.3389 3.33781 39.7552C3.33781 40.4468 2.46397 40.6335 0.935768 40.2685C0.660974 40.2028 0.399824 40.1409 0.355473 40.131C0.276993 40.1133 0.273535 40.1324 0.227646 40.8353C0.201666 41.2326 0.172841 41.5852 0.163502 41.6188C0.110119 41.8112 2.00627 42.0544 2.84987 41.9632C4.48268 41.7869 5.33735 40.9624 5.33585 39.565C5.33458 38.381 4.87085 37.8814 3.28892 37.3596C1.21709 36.6761 2.03006 35.4387 4.17991 36.0034C4.3826 36.0566 4.58322 36.1083 4.62573 36.1183C4.71439 36.1392 5.07666 34.8211 5.0026 34.7472C4.76362 34.5088 2.82719 34.3576 2.06953 34.5183ZM22.4388 34.5158C21.1707 34.7933 20.5089 35.5516 20.5132 36.7223C20.5174 37.8467 20.9457 38.3118 22.4279 38.8014C23.4923 39.153 23.7236 39.3238 23.7236 39.7581C23.7236 40.4567 22.8146 40.6365 21.2367 40.2499C20.5945 40.0925 20.685 40.0136 20.6146 40.7928C20.5824 41.1502 20.5486 41.497 20.5397 41.5635C20.5262 41.663 20.538 41.6874 20.6067 41.7026C21.7219 41.9481 21.925 41.9746 22.6887 41.9749C24.7163 41.9756 25.8069 41.0637 25.7329 39.4293C25.6833 38.334 25.2208 37.8724 23.6582 37.3588C22.8096 37.0799 22.5157 36.8608 22.5157 36.507C22.5157 35.8417 23.4358 35.6612 24.7965 36.0595C24.9412 36.1018 25.0683 36.1278 25.0789 36.1173C25.1195 36.0767 25.4313 34.7683 25.4058 34.7451C25.3636 34.7065 24.9544 34.5969 24.6136 34.5327C24.106 34.4372 22.8427 34.4274 22.4388 34.5158ZM28.3575 34.5187C27.0955 34.7882 26.4368 35.5384 26.4368 36.7063C26.4368 37.8463 26.8753 38.3232 28.3767 38.8161C29.418 39.158 29.6258 39.3162 29.6258 39.7668C29.6258 40.457 28.7258 40.6347 27.1657 40.2524C26.5116 40.0921 26.5935 40.0293 26.5299 40.7399C26.453 41.5978 26.4556 41.6776 26.5608 41.7081C29.079 42.4371 31.2593 41.7583 31.5861 40.1434C31.8744 38.7191 31.3334 37.9573 29.6215 37.3772C28.6443 37.046 28.4342 36.8896 28.4345 36.4933C28.435 35.8693 29.2291 35.678 30.4679 36.0034C30.6706 36.0566 30.8712 36.1083 30.9137 36.1183C30.9832 36.1347 31.3221 34.9979 31.3176 34.7633C31.3166 34.7091 30.6141 34.5385 30.1648 34.4835C29.6458 34.4199 28.7373 34.4377 28.3575 34.5187ZM35.3139 34.5043C31.8413 35.1359 31.1883 40.6108 34.4519 41.7313C35.4124 42.0611 37.2602 41.9803 37.8836 41.5813C37.9256 41.5544 37.773 40.1078 37.7185 40.0165C37.7161 40.0125 37.5676 40.0611 37.3884 40.1244C35.5205 40.7841 34.3715 39.9769 34.4385 38.0521C34.4974 36.3612 35.5958 35.6498 37.3121 36.1908C37.4853 36.2454 37.6316 36.2845 37.6372 36.2777C37.6428 36.2708 37.7386 35.9225 37.8501 35.5037C38.0821 34.6315 38.1034 34.7152 37.6212 34.5995C36.9263 34.4329 35.9324 34.3918 35.3139 34.5043ZM18.8432 34.5574C17.6072 34.6986 17.5514 34.8877 17.5663 38.8923L17.5771 41.8262H18.5187H19.4603L19.4701 38.1975L19.4799 34.5687L19.3356 34.545C19.178 34.519 19.1802 34.5189 18.8432 34.5574ZM5.78378 34.6833C6.0947 36.3838 6.99564 39.4921 7.79565 41.6249L7.8784 41.8454H8.872H9.8656L9.91837 41.6632C9.94742 41.563 10.2557 40.4931 10.6035 39.2856C10.9512 38.078 11.2448 37.09 11.2558 37.09C11.2707 37.0899 12.3357 40.7381 12.6072 41.7192L12.6421 41.8454H13.6415H14.6409L14.6926 41.7207C15.2459 40.3863 16.7508 35.1812 16.7508 34.602C16.7508 34.571 16.4885 34.5587 15.8299 34.5587H14.909L14.8709 34.7025C14.85 34.7816 14.5892 35.8214 14.2915 37.0131C13.9938 38.2049 13.7312 39.2393 13.7079 39.3117C13.674 39.4172 12.2678 34.8271 12.2547 34.5682C12.2544 34.563 11.8254 34.5587 11.3013 34.5587H10.3485L9.6199 37.03L8.89133 39.5014L8.73184 38.8613C8.64413 38.5092 8.36949 37.3971 8.1216 36.3899L7.67083 34.5587H6.71589H5.76099L5.78378 34.6833ZM42.2317 36.056C44.2004 36.367 43.9157 40.3242 41.9242 40.3295C39.7605 40.3353 39.7605 36.1792 41.9242 36.0208C41.9559 36.0185 42.0943 36.0343 42.2317 36.056Z" fill="white"></path></svg> 